<svg id="svg" version="1.1" width="402" height="212" xmlns="http://www.w3.org/2000/svg" xmlns:xlink="http://www.w3.org/1999/xlink" >
<g id="svgg">
<path id="path0" d="

M13.616 2.017 
C 6.597 14.964,2.630 26.791,0.841 40.098 
C 0.089 45.694,0.117 61.775,0.884 64.364 
C 1.005 64.770,4.318 64.792,66.031 64.792 
L 131.051 64.792 131.051 32.396 
L 131.051 0.000 72.880 0.000 
L 14.710 0.000 13.616 2.017 

z
M279.829 8.167 
C 278.388 8.803,277.506 10.433,277.506 12.462 
L 277.506 13.692 276.284 13.692 
L 275.061 13.692 275.061 14.548 
L 275.061 15.403 276.284 15.403 
L 277.506 15.403 277.506 20.660 
L 277.506 25.917 278.729 25.917 
L 279.951 25.917 279.951 20.660 
L 279.951 15.403 281.540 15.403 
L 283.130 15.403 283.130 14.548 
L 283.130 13.692 281.510 13.692 
L 279.891 13.692 280.005 12.306 
C 280.167 10.358,280.959 9.664,282.803 9.854 
L 284.092 9.988 284.246 9.166 
C 284.331 8.714,284.328 8.228,284.240 8.084 
C 284.012 7.715,280.712 7.777,279.829 8.167 

z
M180.122 9.237 
C 179.129 10.335,179.888 11.814,181.380 11.688 
C 183.329 11.523,183.345 9.016,181.398 8.851 
C 180.799 8.800,180.411 8.918,180.122 9.237 

z
M230.244 9.237 
C 229.267 10.317,230.088 11.835,231.571 11.692 
C 233.459 11.509,233.414 9.012,231.520 8.851 
C 230.921 8.800,230.533 8.918,230.244 9.237 

z
M238.203 9.355 
L 237.164 9.605 237.164 11.648 
L 237.164 13.692 235.941 13.692 
L 234.719 13.692 234.719 14.548 
L 234.719 15.403 235.941 15.403 
L 237.164 15.403 237.165 19.377 
C 237.167 25.647,237.692 26.426,241.626 26.004 
L 243.032 25.854 243.032 24.797 
L 243.032 23.739 241.870 23.870 C 239.828 24.101,239.744 23.930,239.653 19.336 
L 239.575 15.403 241.303 15.403 
L 243.032 15.403 243.032 14.548 
L 243.032 13.692 241.320 13.692 
L 239.609 13.692 239.609 11.369 
C 239.609 10.092,239.526 9.060,239.425 9.076 
C 239.325 9.092,238.774 9.218,238.203 9.355 

z
M148.900 15.841 
C 148.900 25.052,149.982 26.633,155.910 26.080 
C 160.779 25.625,161.465 24.367,161.567 15.709 
L 161.643 9.291 160.406 9.291 
L 159.169 9.291 159.168 15.342 
C 159.168 23.140,158.801 23.959,155.310 23.961 
C 151.659 23.962,151.347 23.293,151.346 15.465 
L 151.345 9.291 150.122 9.291 
L 148.900 9.291 148.900 15.841 

z
M67.726 14.059 
L 67.726 16.870 59.291 16.870 
L 50.856 16.870 50.856 22.738 
L 50.856 28.606 58.435 28.606 
L 66.015 28.606 66.015 31.296 
L 66.015 33.985 58.435 33.985 
L 50.856 33.985 50.856 43.521 
L 50.856 53.056 47.555 53.056 
L 44.254 53.056 44.254 32.152 
L 44.254 11.247 55.990 11.247 
L 67.726 11.247 67.726 14.059 

z
M82.396 19.927 
L 82.396 28.606 92.298 28.606 
L 102.200 28.606 102.200 19.927 
L 102.200 11.247 105.501 11.247 
L 108.802 11.247 108.802 32.152 
L 108.802 53.056 105.501 53.056 
L 102.200 53.056 102.200 43.643 
L 102.200 34.230 92.298 34.230 
L 82.396 34.230 82.396 43.643 
L 82.396 53.056 78.973 53.056 
L 75.550 53.056 75.550 32.152 
L 75.550 11.247 78.973 11.247 
L 82.396 11.247 82.396 19.927 

z
M170.049 13.732 
C 169.780 13.880,169.257 14.283,168.888 14.626 
L 168.215 15.250 168.215 14.471 
C 168.215 13.699,168.204 13.692,166.993 13.692 
L 165.770 13.692 165.770 19.804 
L 165.770 25.917 166.993 25.917 
L 168.215 25.917 168.215 22.661 
C 168.215 17.800,169.030 15.842,171.200 15.490 
C 173.229 15.161,173.591 16.118,173.593 21.822 
L 173.594 25.917 174.841 25.917 
L 176.089 25.917 175.995 20.844 
C 175.893 15.242,175.726 14.537,174.336 13.818 
C 173.497 13.385,170.777 13.330,170.049 13.732 

z
M179.951 19.682 
L 179.951 25.917 181.174 25.917 
L 182.396 25.917 182.396 19.682 
L 182.396 13.447 181.174 13.447 
L 179.951 13.447 179.951 19.682 

z
M199.977 14.017 
C 196.168 16.029,196.154 23.777,199.957 25.500 
C 201.283 26.101,204.318 26.204,206.051 25.707 
C 207.074 25.414,207.090 25.392,207.090 24.318 
C 207.090 23.718,207.063 23.229,207.029 23.231 
C 206.996 23.233,206.528 23.393,205.990 23.587 
C 202.759 24.751,199.756 23.382,199.756 20.746 
L 199.756 19.804 203.667 19.804 
L 207.579 19.804 207.574 18.399 
C 207.559 14.322,203.659 12.072,199.977 14.017 

z
M214.067 14.206 
L 213.203 14.965 213.203 14.329 
C 213.203 13.728,213.134 13.692,211.980 13.692 
L 210.758 13.692 210.758 19.804 
L 210.758 25.917 211.955 25.917 
L 213.152 25.917 213.247 22.066 
C 213.366 17.281,214.103 15.648,216.144 15.648 
C 216.878 15.648,217.115 15.285,217.115 14.161 
C 217.115 13.083,215.317 13.109,214.067 14.206 

z
M220.849 13.923 
C 219.563 14.512,218.829 15.654,218.827 17.066 
C 218.826 19.055,219.491 19.695,222.802 20.893 
C 226.301 22.159,223.751 24.706,219.844 23.847 
L 219.071 23.678 219.071 24.780 
L 219.071 25.882 220.433 26.052 
C 227.156 26.892,229.619 20.462,223.297 18.573 
C 219.484 17.434,221.434 14.648,225.430 15.526 
L 226.192 15.693 226.115 14.632 
L 226.039 13.570 223.961 13.509 
C 222.330 13.462,221.660 13.551,220.849 13.923 

z
M230.073 19.682 
L 230.073 25.917 231.296 25.917 
L 232.518 25.917 232.518 19.682 
L 232.518 13.447 231.296 13.447 
L 230.073 13.447 230.073 19.682 

z
M265.770 13.825 
C 261.429 15.767,261.016 23.421,265.134 25.612 
C 270.295 28.356,275.898 21.668,273.137 16.060 
C 272.010 13.772,268.362 12.666,265.770 13.825 

z
M186.925 19.743 
L 189.195 25.795 190.478 25.795 
L 191.761 25.795 193.923 20.171 
C 195.113 17.078,196.149 14.355,196.226 14.120 
C 196.347 13.748,196.192 13.692,195.033 13.692 
L 193.701 13.692 192.286 17.665 
C 191.509 19.850,190.800 21.847,190.711 22.102 
C 190.600 22.420,190.066 21.173,189.010 18.128 
L 187.470 13.692 186.063 13.692 
L 184.655 13.692 186.925 19.743 

z
M246.350 19.708 
L 248.629 25.724 248.134 27.046 
C 247.299 29.280,246.625 29.885,245.082 29.788 
L 243.787 29.707 243.628 30.647 
C 243.413 31.923,243.682 32.107,245.577 31.987 
C 248.592 31.795,249.061 31.106,252.685 21.534 
C 255.984 12.820,255.815 13.692,254.208 13.692 
L 252.915 13.692 251.431 18.017 
L 249.948 22.343 249.511 21.012 
C 249.271 20.281,248.583 18.334,247.983 16.687 
L 246.891 13.692 245.481 13.692 
L 244.070 13.692 246.350 19.708 

z
M204.312 15.946 
C 204.613 16.253,204.934 16.806,205.024 17.176 
L 205.187 17.848 202.471 17.848 
L 199.754 17.848 200.077 17.054 
C 200.808 15.259,203.057 14.670,204.312 15.946 


z
M269.636 15.899 
C 271.809 17.224,271.773 22.162,269.579 23.500 
C 267.326 24.874,265.105 23.317,264.854 20.185 
C 264.571 16.664,267.130 14.371,269.636 15.899 

z
M191.443 44.132 
L 191.443 53.056 192.665 53.056 
L 193.888 53.056 193.888 44.132 
L 193.888 35.208 192.665 35.208 
L 191.443 35.208 191.443 44.132 

z
M224.450 37.975 
L 224.450 40.741 222.542 40.741 
C 217.732 40.741,214.955 45.001,216.392 50.176 
C 217.279 53.370,221.304 54.432,223.778 52.125 
L 224.450 51.498 224.450 52.277 
C 224.450 53.049,224.461 53.056,225.672 53.056 
L 226.895 53.056 226.895 44.132 
L 226.895 35.208 225.672 35.208 
L 224.450 35.208 224.450 37.975 

z
M198.343 36.322 
C 197.690 36.779,197.599 38.151,198.184 38.736 
C 198.702 39.254,199.832 39.221,200.329 38.673 
C 201.213 37.696,200.530 35.941,199.267 35.941 
C 199.057 35.941,198.642 36.113,198.343 36.322 

z
M259.957 36.322 
C 259.272 36.802,259.218 38.134,259.860 38.715 
C 260.885 39.642,262.347 38.906,262.347 37.464 
C 262.347 36.676,261.639 35.941,260.880 35.941 
C 260.671 35.941,260.255 36.113,259.957 36.322 

z
M150.000 44.535 
C 148.386 48.989,147.029 52.728,146.985 52.845 
C 146.940 52.961,147.497 53.056,148.224 53.056 
L 149.545 53.056 150.167 51.284 
L 150.788 49.511 154.184 49.444 
L 157.580 49.376 158.215 51.155 
L 158.850 52.934 160.263 53.008 
C 161.341 53.065,161.650 53.007,161.568 52.764 
C 161.508 52.588,160.146 48.843,158.541 44.440 
L 155.623 36.435 154.279 36.436 
L 152.934 36.437 150.000 44.535 

z
M238.240 37.016 
C 236.638 37.761,235.885 38.811,235.746 40.492 
C 235.525 43.147,236.378 44.273,239.631 45.621 
C 245.279 47.962,243.094 52.608,237.165 50.863 
C 235.935 50.501,235.941 50.496,235.941 51.823 
C 235.941 53.287,236.315 53.424,239.844 53.256 
C 243.554 53.078,245.464 51.384,245.473 48.264 
C 245.479 45.985,244.979 45.407,241.536 43.710 
C 239.232 42.575,238.638 42.173,238.394 41.583 
C 237.470 39.353,240.410 37.785,243.801 38.698 
C 244.498 38.885,245.022 37.047,244.394 36.617 
C 243.718 36.154,239.504 36.427,238.240 37.016 

z
M155.702 44.071 
L 156.910 47.433 154.231 47.433 
C 152.210 47.433,151.573 47.358,151.632 47.127 
C 152.154 45.111,154.189 39.941,154.326 40.284 
C 154.419 40.518,155.038 42.222,155.702 44.071 

z
M168.337 40.954 
C 167.800 41.145,167.112 41.586,166.809 41.935 
L 166.259 42.570 166.259 41.701 
C 166.259 40.833,166.257 40.831,165.159 40.831 
L 164.059 40.831 164.059 50.000 
L 164.059 59.169 165.159 59.169 
L 166.259 59.169 166.259 56.235 
L 166.259 53.301 168.032 53.290 
C 172.194 53.265,174.284 51.293,174.523 47.168 
C 174.811 42.191,172.215 39.583,168.337 40.954 

z
M182.274 40.881 
C 181.870 41.021,181.183 41.474,180.746 41.887 
L 179.951 42.639 179.951 41.735 
L 179.951 40.831 178.851 40.831 
L 177.751 40.831 177.751 50.000 
L 177.751 59.169 178.973 59.169 
L 180.196 59.169 180.196 56.265 
L 180.196 53.362 182.213 53.251 
C 186.412 53.021,188.322 50.902,188.322 46.476 
C 188.322 41.979,185.806 39.652,182.274 40.881 

z
M207.335 40.860 
C 204.899 41.592,203.583 43.814,203.591 47.177 
C 203.603 51.458,205.326 53.284,209.366 53.295 
C 212.620 53.305,213.447 52.978,213.447 51.682 
C 213.447 51.093,213.420 50.612,213.386 50.614 
C 213.353 50.615,212.785 50.780,212.125 50.981 
C 208.676 52.027,206.114 50.697,206.113 47.861 
L 206.112 46.944 210.057 46.944 
L 214.002 46.944 213.880 45.233 
C 213.631 41.755,210.753 39.832,207.335 40.860 

z
M251.997 40.923 
C 249.033 41.755,247.794 43.902,247.967 47.909 
C 248.136 51.860,249.436 53.178,253.160 53.178 
C 256.433 53.178,256.724 53.056,256.724 51.680 
C 256.724 50.575,256.713 50.561,256.051 50.739 
C 252.134 51.793,250.360 50.607,250.373 46.944 
C 250.385 43.755,252.442 42.322,255.990 43.032 
C 256.623 43.158,257.078 41.576,256.557 41.056 
C 256.169 40.670,253.209 40.583,251.997 40.923 

z
M268.841 40.937 
C 266.440 41.829,265.264 43.757,265.243 46.834 
C 265.213 51.438,266.851 53.284,270.980 53.295 
C 274.234 53.305,275.061 52.978,275.061 51.682 
C 275.061 51.093,275.034 50.612,275.000 50.614 
C 274.966 50.615,274.399 50.780,273.739 50.981 
C 270.317 52.019,267.726 50.675,267.726 47.864 
L 267.726 46.944 271.666 46.944 
L 275.605 46.944 275.511 45.266 
C 275.311 41.739,272.170 39.701,268.841 40.937 

z
M283.461 40.854 
C 283.038 40.976,282.350 41.396,281.933 41.786 
L 281.174 42.494 281.174 41.663 
L 281.174 40.831 279.951 40.831 
L 278.729 40.831 278.729 46.944 
L 278.729 53.056 279.929 53.056 
L 281.130 53.056 281.213 49.328 
C 281.324 44.333,282.149 42.787,284.701 42.787 
C 286.230 42.787,286.417 43.388,286.511 48.583 
L 286.591 53.056 287.820 53.056 
L 289.048 53.056 288.962 48.105 
C 288.841 41.178,287.670 39.634,283.461 40.854 

z
M296.073 40.907 
C 292.861 41.813,291.194 45.539,292.173 49.622 
C 292.906 52.675,295.962 54.017,299.917 53.021 
L 301.029 52.741 300.870 51.746 
C 300.674 50.520,300.699 50.543,299.896 50.849 
C 296.801 52.026,294.527 50.473,294.536 47.188 
C 294.545 43.679,296.862 41.885,299.896 43.039 
C 300.686 43.339,300.629 43.396,300.821 42.141 
C 301.003 40.949,300.933 40.902,298.713 40.718 
C 297.813 40.643,296.732 40.721,296.073 40.907 

z
M306.268 40.945 
C 302.231 42.384,301.313 50.107,304.896 52.478 
C 307.209 54.009,312.642 53.468,312.533 51.718 
C 312.460 50.528,312.533 50.566,311.136 50.987 
C 307.840 51.979,305.608 50.887,305.226 48.095 
L 305.070 46.956 309.075 46.889 
C 313.684 46.811,313.491 46.940,312.946 44.317 
C 312.336 41.377,309.324 39.856,306.268 40.945 

z
M318.704 40.815 
C 314.307 41.886,314.199 46.368,318.536 47.790 
C 322.383 49.051,321.672 51.524,317.543 51.244 
L 315.648 51.116 315.648 52.208 
L 315.648 53.301 317.910 53.295 
C 321.580 53.287,323.472 52.038,323.472 49.626 
C 323.472 47.502,323.189 47.216,319.535 45.639 
C 316.627 44.384,317.970 42.146,321.301 42.697 
L 322.738 42.935 322.738 41.915 
C 322.738 40.647,321.161 40.217,318.704 40.815 

z
M198.044 46.944 
L 198.044 53.056 199.267 53.056 
L 200.489 53.056 200.489 46.944 
L 200.489 40.831 199.267 40.831 
L 198.044 40.831 198.044 46.944 

z
M259.658 46.944 
L 259.658 53.056 260.880 53.056 
L 262.103 53.056 262.103 46.944 
L 262.103 40.831 260.880 40.831 
L 259.658 40.831 259.658 46.944 

z
M210.233 42.891 
C 210.895 43.233,211.491 44.175,211.491 44.877 
C 211.491 45.166,210.992 45.232,208.815 45.232 
L 206.138 45.232 206.393 44.501 
C 206.963 42.866,208.743 42.120,210.233 42.891 

z
M224.314 45.601 
C 224.295 49.058,223.469 50.847,221.714 51.233 
C 219.972 51.615,218.886 50.402,218.690 47.854 
C 218.417 44.318,220.216 42.357,223.345 42.780 
L 224.328 42.913 224.314 45.601 

z
M271.847 42.891 
C 272.508 43.233,273.105 44.175,273.105 44.877 
C 273.105 45.166,272.606 45.232,270.428 45.232 
L 267.752 45.232 268.007 44.501 
C 268.576 42.866,270.356 42.120,271.847 42.891 

z
M309.648 43.093 
C 309.994 43.395,310.378 44.001,310.501 44.438 
L 310.724 45.232 308.051 45.232 
C 305.199 45.232,305.132 45.197,305.744 44.012 
C 306.532 42.490,308.444 42.040,309.648 43.093 

z
M170.969 43.275 
C 173.656 45.388,171.712 51.353,168.341 51.341 
C 166.157 51.334,166.177 51.363,166.318 48.435 
C 166.538 43.843,168.676 41.471,170.969 43.275 

z
M184.782 43.337 
C 187.816 46.576,184.536 52.714,180.582 51.196 
C 180.111 51.015,180.030 46.939,180.467 45.366 
C 181.083 43.147,183.527 41.998,184.782 43.337 

z
M2.069 72.433 
C 2.136 72.735,2.478 74.303,2.830 75.917 
C 5.122 86.428,8.515 95.352,18.027 115.892 
C 21.691 123.802,24.098 129.964,25.557 135.163 
L 25.981 136.675 212.991 136.675 
L 400.000 136.675 400.000 104.279 
L 400.000 71.883 200.973 71.883 
L 1.947 71.883 2.069 72.433 

z
M133.810 83.352 
C 134.857 83.624,136.656 84.289,137.809 84.829 
L 139.905 85.812 138.919 86.977 
C 138.376 87.618,137.454 88.679,136.870 89.336 
L 135.807 90.531 134.828 90.031 
C 126.460 85.762,115.797 91.185,113.785 100.733 
C 111.214 112.936,123.462 123.085,134.614 117.993 
L 135.854 117.427 137.844 119.694 
C 140.034 122.189,140.027 122.043,138.020 123.048 
C 128.562 127.780,116.218 124.538,110.398 115.792 
C 99.560 99.502,114.791 78.397,133.810 83.352 

z
M72.127 85.941 
L 72.127 88.753 66.259 88.753 
L 60.391 88.753 60.391 106.846 
L 60.391 124.939 57.090 124.939 
L 53.790 124.939 53.790 106.846 
L 53.790 88.753 47.800 88.753 
L 41.809 88.753 41.809 85.941 
L 41.809 83.130 56.968 83.130 
L 72.127 83.130 72.127 85.941 

z
M101.222 85.819 
L 101.222 88.509 93.643 88.509 
L 86.064 88.509 86.064 94.621 
L 86.064 100.733 92.543 100.733 
L 99.022 100.733 99.022 103.423 
L 99.022 106.112 92.543 106.112 
L 86.064 106.112 86.064 112.592 
L 86.064 119.071 93.643 119.071 
L 101.222 119.071 101.222 122.005 
L 101.222 124.939 90.342 124.939 
L 79.462 124.939 79.462 104.034 
L 79.462 83.130 90.342 83.130 
L 101.222 83.130 101.222 85.819 z

M153.790 91.809 
L 153.790 100.489 163.692 100.489 
L 173.594 100.489 173.594 91.809 
L 173.594 83.130 176.895 83.130 
L 180.196 83.130 180.196 104.034 
L 180.196 124.939 176.895 124.939 
L 173.594 124.939 173.594 115.526 
L 173.594 106.112 163.692 106.112 
L 153.790 106.112 153.790 115.526 
L 153.790 124.939 150.367 124.939 
L 146.944 124.939 146.944 104.034 
L 146.944 83.130 150.367 83.130 
L 153.790 83.130 153.790 91.809 z

M208.124 95.554 
C 212.256 102.385,216.477 109.598,217.502 111.582 
C 218.528 113.566,219.409 115.147,219.459 115.097 
C 219.510 115.046,219.445 110.666,219.316 105.363 
C 219.187 100.060,219.079 92.888,219.076 89.425 
L 219.071 83.130 222.372 83.130 
L 225.672 83.130 225.672 104.034 
L 225.672 124.939 221.333 124.931 
L 216.993 124.923 208.959 111.497 
C 204.540 104.112,200.304 96.808,199.545 95.265 
C 198.787 93.722,198.111 92.451,198.044 92.440 
C 197.977 92.429,197.991 94.428,198.077 96.882 
C 198.162 99.337,198.244 106.653,198.260 113.142 
L 198.289 124.939 195.110 124.939 
L 191.932 124.939 191.932 104.034 
L 191.932 83.130 196.271 83.131 
L 200.611 83.133 208.124 95.554 z

M244.010 104.034 
L 244.010 124.939 240.587 124.939 
L 237.164 124.939 237.164 104.034 
L 237.164 83.130 240.587 83.130 
L 244.010 83.130 244.010 104.034 z

M262.103 92.802 
C 262.103 98.902,262.189 102.420,262.337 102.329 
C 262.466 102.250,265.939 97.897,270.055 92.657 
L 277.539 83.130 281.575 83.130 
L 285.610 83.130 285.164 83.687 
C 284.919 83.993,281.253 88.464,277.017 93.622 
C 272.781 98.779,269.328 103.136,269.344 103.303 
C 269.366 103.534,284.161 122.356,286.016 124.511 
C 286.364 124.916,286.151 124.939,281.981 124.939 
L 277.578 124.939 270.041 114.780 
C 265.896 109.192,262.414 104.564,262.303 104.496 
C 262.193 104.428,262.103 109.000,262.103 114.655 
L 262.103 124.939 258.802 124.939 
L 255.501 124.939 255.501 104.034 
L 255.501 83.130 258.802 83.130 
L 262.103 83.130 262.103 92.802 z

M299.077 97.127 
C 299.168 112.758,299.114 112.255,301.004 115.200 
C 304.766 121.062,314.221 120.411,317.214 114.084 
C 318.288 111.814,318.325 111.246,318.331 96.883 
L 318.337 83.130 321.771 83.130 
L 325.205 83.130 325.133 97.983 
L 325.061 112.836 324.371 114.790 
C 319.086 129.745,296.805 129.044,292.906 113.800 
C 292.449 112.012,292.421 111.067,292.421 97.516 
L 292.421 83.130 295.708 83.130 
L 298.996 83.130 299.077 97.127 z

M351.442 96.760 
C 353.936 104.257,356.294 111.656,356.682 113.203 
L 357.388 116.015 357.677 114.914 
C 358.730 110.910,359.656 108.000,363.609 96.271 
L 368.038 83.130 372.019 83.130 
L 376.000 83.130 376.141 83.802 
C 376.288 84.509,382.396 124.540,382.396 124.801 
C 382.396 124.884,380.828 124.922,378.912 124.884 
L 375.428 124.817 373.794 113.814 
C 372.246 103.390,370.905 93.604,370.905 92.735 
C 370.905 91.826,370.515 92.863,369.803 95.669 
C 369.386 97.311,367.128 104.569,364.786 111.797 
L 360.527 124.939 357.084 124.939 
L 353.641 124.939 349.064 110.941 
C 346.547 103.243,344.247 95.899,343.952 94.621 
L 343.416 92.298 343.234 93.399 
C 343.133 94.004,342.762 97.139,342.409 100.367 
C 342.055 103.594,341.250 110.416,340.619 115.526 
L 339.472 124.817 336.117 124.885 
C 334.272 124.922,332.763 124.858,332.763 124.743 
C 332.763 124.627,334.137 115.355,335.818 104.137 
C 337.498 92.919,338.873 83.603,338.874 83.435 
C 338.875 83.203,339.842 83.130,342.891 83.130 
L 346.907 83.130 351.442 96.760 z

M27.628 143.955 
C 27.628 144.060,27.846 145.689,28.112 147.576 
C 30.450 164.182,27.805 184.912,20.674 205.855 
C 20.196 207.260,19.804 208.442,19.804 208.483 
C 19.804 208.524,63.814 208.557,117.604 208.557 
L 215.403 208.557 215.403 176.161 
L 215.403 143.765 121.516 143.765 
C 69.878 143.765,27.628 143.851,27.628 143.955 z

M57.800 169.215 
C 59.778 177.026,61.583 184.563,61.811 185.963 
C 62.190 188.292,62.588 189.307,62.594 187.958 
C 62.600 186.619,63.987 181.097,67.480 168.515 
L 71.231 155.000 74.891 155.067 
L 78.551 155.134 82.429 168.826 
C 84.562 176.357,86.550 183.729,86.846 185.208 
C 87.544 188.683,87.627 188.735,88.124 186.018 
C 88.353 184.765,90.137 177.277,92.090 169.377 
L 95.640 155.012 98.947 155.012 
L 102.254 155.012 102.089 155.685 
C 101.768 156.994,91.667 195.972,91.537 196.399 
C 91.417 196.796,91.054 196.827,87.336 196.766 
L 83.266 196.699 79.421 182.763 
C 77.306 175.098,75.334 167.531,75.039 165.948 
C 74.744 164.365,74.473 163.099,74.437 163.136 
C 74.401 163.173,74.145 164.468,73.868 166.015 
C 73.498 168.078,67.018 192.689,65.870 196.394 
C 65.751 196.777,65.340 196.822,61.880 196.822 
L 58.023 196.822 57.511 194.927 
C 57.230 193.884,54.840 184.670,52.201 174.450 
C 49.562 164.230,47.347 155.675,47.279 155.440 
C 47.165 155.047,47.439 155.012,50.679 155.012 
L 54.203 155.012 57.800 169.215 z

M116.626 175.917 
L 116.626 196.822 113.325 196.822 
L 110.024 196.822 110.024 175.917 
L 110.024 155.012 113.325 155.012 
L 116.626 155.012 116.626 175.917 z

M149.878 157.702 
L 149.878 160.391 142.176 160.391 
L 134.474 160.391 134.474 166.504 
L 134.474 172.616 140.954 172.616 
L 147.433 172.616 147.433 175.306 
L 147.433 177.995 140.954 177.995 
L 134.474 177.995 134.474 184.597 
L 134.474 191.198 142.176 191.198 
L 149.878 191.198 149.878 194.010 
L 149.878 196.822 138.875 196.822 
L 127.873 196.822 127.873 175.917 
L 127.873 155.012 138.875 155.012 
L 149.878 155.012 149.878 157.702 z 

M173.549 163.875 
C 182.447 178.548,183.427 180.212,185.208 183.691 
C 186.624 186.458,187.823 188.247,187.166 186.614 
C 187.072 186.378,186.933 179.172,186.859 170.599 
L 186.725 155.012 189.939 155.012 
L 193.154 155.012 193.154 175.917 
L 193.154 196.822 188.896 196.822 
L 184.639 196.822 176.785 183.754 
C 172.466 176.568,168.193 169.267,167.290 167.531 
L 165.648 164.374 165.732 180.598 
L 165.817 196.822 162.615 196.822 
L 159.413 196.822 159.413 175.917 
L 159.413 155.012 163.793 155.012 
L 168.174 155.012 173.549 163.875 z" stroke="none" fill="#000000" fill-rule="evenodd">
</path>
</g>
</svg>
