<svg id="svg" version="1.1" width="400" height="281.5525512429132" viewBox="0 0 400 281.5525512429132" xmlns="http://www.w3.org/2000/svg" xmlns:xlink="http://www.w3.org/1999/xlink" ><g id="svgg"><path id="path0" d="M96.642 89.577 L 96.642 104.492 98.997 104.492 L 101.352 104.492 101.352 97.776 L 101.352 91.060 106.760 91.060 L 112.167 91.060 112.167 89.054 L 112.167 87.048 106.760 87.048 L 101.352 87.048 101.352 82.861 L 101.352 78.674 107.370 78.674 L 113.389 78.674 113.389 76.668 L 113.389 74.662 105.015 74.662 L 96.642 74.662 96.642 89.577 M118.971 89.577 L 118.971 104.492 121.413 104.492 L 123.855 104.492 123.855 97.776 L 123.855 91.060 130.920 91.060 L 137.985 91.060 137.985 97.776 L 137.985 104.492 140.340 104.492 L 142.695 104.492 142.695 89.577 L 142.695 74.662 140.340 74.662 L 137.985 74.662 137.985 80.768 L 137.985 86.873 130.920 86.873 L 123.855 86.873 123.855 80.768 L 123.855 74.662 121.413 74.662 L 118.971 74.662 118.971 89.577 M153.344 125.961 C 136.327 129.811,137.772 154.249,155.115 155.926 C 158.379 156.242,163.317 155.139,164.831 153.756 C 164.897 153.696,164.052 152.668,162.647 151.099 L 161.971 150.345 161.012 150.786 C 156.712 152.760,151.695 151.600,148.636 147.924 C 141.409 139.239,150.224 126.667,160.718 130.693 C 161.468 130.981,162.101 131.189,162.123 131.155 C 162.146 131.122,162.779 130.395,163.531 129.540 C 165.099 127.754,165.121 127.886,163.105 126.961 C 160.326 125.686,156.357 125.279,153.344 125.961 M234.278 140.820 L 234.278 155.778 236.720 155.778 L 239.163 155.778 239.163 140.863 C 239.163 126.781,239.146 125.948,238.857 125.932 C 238.689 125.923,237.591 125.904,236.415 125.889 L 234.278 125.861 234.278 140.820 M94.898 127.955 L 94.898 129.961 99.148 129.961 L 103.398 129.961 103.410 142.739 C 103.417 149.767,103.427 155.576,103.434 155.648 C 103.440 155.720,104.505 155.778,105.800 155.778 L 108.155 155.778 108.155 142.870 L 108.155 129.961 112.342 129.961 L 116.529 129.961 116.529 127.955 L 116.529 125.949 105.713 125.949 L 94.898 125.949 94.898 127.955 M121.748 126.167 C 121.730 126.456,121.729 154.880,121.748 155.386 L 121.762 155.778 129.525 155.778 C 136.794 155.778,137.289 155.759,137.307 155.473 C 137.324 155.199,137.314 152.043,137.295 151.723 C 137.291 151.651,134.854 151.592,131.880 151.592 L 126.472 151.592 126.472 146.969 L 126.472 142.346 131.095 142.346 L 135.717 142.346 135.717 140.427 L 135.717 138.509 134.365 138.496 C 133.622 138.489,131.561 138.470,129.786 138.452 L 126.559 138.421 126.559 134.147 L 126.559 129.874 131.854 129.855 C 135.693 129.841,137.184 129.780,137.275 129.632 C 137.378 129.465,137.403 127.015,137.311 126.167 C 137.293 125.996,135.606 125.949,129.525 125.949 C 123.438 125.949,121.759 125.996,121.748 126.167 M169.908 140.863 L 169.908 155.778 172.351 155.778 L 174.793 155.778 174.793 149.062 L 174.793 142.346 181.858 142.346 L 188.923 142.346 188.923 149.062 L 188.923 155.778 191.278 155.778 L 193.633 155.778 193.633 140.863 L 193.633 125.949 191.280 125.949 L 188.927 125.949 188.881 132.098 L 188.836 138.247 181.814 138.262 L 174.793 138.278 174.793 132.113 L 174.793 125.949 172.351 125.949 L 169.908 125.949 169.908 140.863 M201.996 126.341 C 201.980 126.990,201.975 155.325,201.991 155.560 C 202.002 155.723,202.589 155.778,204.299 155.778 L 206.592 155.778 206.503 144.227 L 206.414 132.676 207.363 134.589 C 207.885 135.642,210.914 140.840,214.094 146.140 L 219.876 155.778 222.978 155.778 L 226.079 155.778 226.079 140.863 L 226.079 125.949 223.697 125.949 L 221.315 125.949 221.428 135.359 C 221.490 140.535,221.592 145.696,221.654 146.829 C 221.716 147.961,221.729 148.849,221.683 148.801 C 221.638 148.753,221.028 147.614,220.328 146.271 C 219.163 144.035,217.479 141.189,210.647 129.917 L 208.242 125.949 205.124 125.949 C 202.010 125.949,202.006 125.949,201.996 126.341 M247.362 140.863 L 247.362 155.778 249.717 155.778 L 252.072 155.778 252.083 155.299 C 252.089 155.035,252.099 151.777,252.106 148.059 C 252.112 144.341,252.166 141.303,252.225 141.306 C 252.285 141.310,254.688 144.495,257.567 148.384 C 260.445 152.273,262.889 155.529,262.997 155.621 C 263.111 155.716,264.507 155.766,266.287 155.739 L 269.379 155.691 267.921 153.860 C 267.118 152.852,264.468 149.516,262.031 146.446 C 259.595 143.375,257.492 140.736,257.359 140.581 C 257.146 140.332,257.321 140.053,258.832 138.226 C 262.789 133.443,268.580 126.369,268.704 126.167 C 268.810 125.995,268.209 125.950,265.907 125.955 L 262.974 125.961 257.654 132.757 C 254.727 136.494,252.283 139.553,252.221 139.554 C 252.159 139.554,252.120 136.494,252.134 132.752 L 252.159 125.949 249.760 125.949 L 247.362 125.949 247.362 140.863 M273.705 136.284 C 273.708 147.792,273.709 147.803,274.882 150.196 C 278.838 158.268,291.854 158.262,295.835 150.186 C 297.059 147.704,297.072 147.559,297.075 136.110 L 297.078 125.949 294.636 125.949 L 292.194 125.949 292.194 135.789 C 292.194 144.938,292.171 145.704,291.865 146.686 C 289.965 152.792,282.140 153.533,279.376 147.869 C 278.500 146.073,278.466 145.600,278.484 135.290 L 278.500 125.949 276.101 125.949 L 273.703 125.949 273.705 136.284 M306.847 126.089 C 306.847 126.170,306.414 129.096,305.886 132.591 C 305.357 136.085,304.536 141.574,304.060 144.788 C 303.585 148.003,303.036 151.682,302.841 152.965 C 302.645 154.247,302.486 155.405,302.486 155.538 C 302.486 155.731,302.963 155.778,304.903 155.778 L 307.320 155.778 307.435 154.601 C 307.498 153.953,307.586 153.188,307.629 152.900 C 307.695 152.459,309.131 140.746,309.382 138.596 C 309.449 138.030,309.955 133.126,309.999 132.626 C 310.005 132.551,310.270 133.519,310.587 134.776 C 310.904 136.033,312.566 141.273,314.281 146.420 L 317.398 155.778 319.871 155.778 L 322.344 155.778 322.610 154.950 C 322.757 154.494,324.147 150.196,325.701 145.399 C 327.254 140.602,328.746 135.784,329.016 134.694 C 329.286 133.603,329.540 132.679,329.579 132.639 C 329.618 132.600,329.745 133.414,329.861 134.448 C 330.082 136.419,330.538 139.672,331.873 148.801 C 332.315 151.823,332.724 154.629,332.782 155.037 L 332.886 155.778 335.392 155.778 C 337.079 155.778,337.898 155.717,337.898 155.589 C 337.898 155.485,337.704 154.131,337.467 152.580 C 337.230 151.029,336.836 148.426,336.590 146.795 C 336.345 145.164,335.989 142.848,335.800 141.648 C 335.611 140.449,335.024 136.603,334.496 133.101 C 333.967 129.599,333.495 126.557,333.445 126.341 C 333.357 125.954,333.319 125.949,330.498 125.949 L 327.640 125.949 327.433 126.515 C 326.294 129.635,320.770 146.424,320.530 147.492 C 320.103 149.399,320.063 149.394,319.581 147.359 C 319.349 146.377,317.698 141.177,315.913 135.805 L 312.667 126.036 309.757 125.988 C 308.157 125.962,306.847 126.007,306.847 126.089 M98.735 177.326 C 98.735 177.417,106.169 206.177,106.343 206.760 C 106.425 207.034,106.717 207.065,109.200 207.065 L 111.966 207.065 112.145 206.498 C 112.243 206.186,113.429 201.869,114.780 196.903 C 116.952 188.921,117.599 186.298,118.010 183.802 C 118.163 182.877,118.225 183.014,118.604 185.120 C 118.787 186.130,120.180 191.481,121.701 197.010 L 124.466 207.064 127.376 207.065 C 130.154 207.065,130.291 207.049,130.399 206.709 C 130.602 206.068,137.985 177.522,137.985 177.377 C 137.985 177.299,136.935 177.235,135.650 177.235 L 133.316 177.235 130.679 187.833 C 129.229 193.661,127.950 199.014,127.837 199.727 C 127.594 201.258,127.550 201.186,126.922 198.256 C 126.676 197.104,125.273 191.923,123.804 186.742 L 121.134 177.322 118.490 177.274 L 115.847 177.226 115.648 177.972 C 115.539 178.382,114.288 182.918,112.870 188.051 C 111.451 193.184,110.145 198.188,109.967 199.171 C 109.574 201.351,109.494 201.378,109.209 199.433 C 109.005 198.038,107.590 192.234,104.806 181.378 L 103.744 177.235 101.240 177.235 C 99.862 177.235,98.735 177.276,98.735 177.326 M143.567 192.150 L 143.567 207.065 145.922 207.065 L 148.277 207.065 148.277 192.150 L 148.277 177.235 145.922 177.235 L 143.567 177.235 143.567 192.150 M156.302 192.150 L 156.302 207.065 164.152 207.065 L 172.002 207.065 172.002 205.061 L 172.002 203.058 166.550 203.012 L 161.099 202.966 161.053 198.299 L 161.006 193.633 165.632 193.633 L 170.257 193.633 170.257 191.717 L 170.257 189.801 165.678 189.754 L 161.099 189.708 161.099 185.434 L 161.099 181.160 166.550 181.114 L 172.002 181.068 172.002 179.151 L 172.002 177.235 164.152 177.235 L 156.302 177.235 156.302 192.150 M178.805 192.146 L 178.805 207.065 181.089 207.065 L 183.372 207.065 183.313 195.467 L 183.253 183.868 184.420 186.178 C 185.062 187.448,188.088 192.647,191.145 197.732 L 196.703 206.978 199.791 207.025 L 202.878 207.073 202.878 192.154 L 202.878 177.235 200.585 177.235 L 198.292 177.235 198.387 188.356 C 198.439 194.472,198.540 199.634,198.612 199.826 C 198.944 200.711,198.271 199.615,196.899 197.034 C 196.082 195.499,193.105 190.436,190.282 185.783 L 185.150 177.322 181.977 177.275 L 178.805 177.227 178.805 192.146 " stroke="none" fill="#ffffff" fill-rule="evenodd"></path><path id="path1" d="M84.780 169.346 C 84.780 169.421,84.935 170.583,85.125 171.930 C 86.793 183.777,84.906 198.568,79.818 213.510 C 79.477 214.512,79.198 215.356,79.198 215.385 C 79.198 215.414,110.597 215.438,148.975 215.438 L 218.753 215.438 218.753 192.324 L 218.753 169.211 151.766 169.211 C 114.924 169.211,84.780 169.272,84.780 169.346 M104.031 177.976 C 104.848 180.838,109.039 197.786,109.228 198.997 C 109.518 200.847,109.562 200.818,110.025 198.472 C 110.238 197.394,111.621 192.154,113.100 186.829 L 115.787 177.148 118.427 177.100 C 121.030 177.052,121.070 177.057,121.234 177.449 C 121.591 178.297,126.680 196.550,127.096 198.474 C 127.338 199.595,127.558 200.534,127.585 200.560 C 127.611 200.587,127.729 200.001,127.847 199.258 C 127.965 198.515,129.222 193.236,130.641 187.527 L 133.220 177.148 135.690 177.099 C 137.048 177.073,138.160 177.090,138.160 177.139 C 138.160 177.187,136.516 183.567,134.508 191.317 C 132.500 199.067,130.764 205.781,130.650 206.236 L 130.443 207.065 127.415 207.065 L 124.388 207.065 124.127 206.149 C 122.096 199.037,118.875 186.978,118.580 185.388 L 118.200 183.337 117.823 185.388 C 117.616 186.517,116.245 191.856,114.776 197.253 L 112.105 207.065 109.214 207.065 L 106.323 207.065 102.498 192.281 C 100.395 184.150,98.640 177.399,98.599 177.279 C 98.541 177.111,99.124 177.061,101.146 177.061 L 103.769 177.061 104.031 177.976 M148.277 192.063 L 148.277 207.065 145.835 207.065 L 143.393 207.065 143.393 192.063 L 143.393 177.061 145.835 177.061 L 148.277 177.061 148.277 192.063 M172.002 179.154 L 172.002 181.247 166.594 181.247 L 161.186 181.247 161.186 185.434 L 161.186 189.621 165.809 189.621 L 170.432 189.621 170.432 191.627 L 170.432 193.633 165.809 193.633 L 161.186 193.633 161.186 198.256 L 161.186 202.878 166.594 202.878 L 172.002 202.878 172.002 204.972 L 172.002 207.065 164.152 207.065 L 156.302 207.065 156.302 192.063 L 156.302 177.061 164.152 177.061 L 172.002 177.061 172.002 179.154 M190.426 185.864 C 193.326 190.658,196.312 195.736,197.061 197.149 C 197.809 198.562,198.437 199.703,198.455 199.684 C 198.474 199.665,198.414 196.550,198.322 192.760 C 198.230 188.971,198.178 183.908,198.205 181.509 L 198.256 177.148 200.611 177.148 L 202.966 177.148 203.010 192.106 L 203.055 207.065 199.858 207.065 L 196.662 207.065 191.179 197.953 C 188.163 192.941,185.174 187.822,184.537 186.577 L 183.378 184.314 183.473 195.690 L 183.568 207.065 181.099 207.065 L 178.631 207.065 178.631 192.179 C 178.631 183.992,178.685 177.239,178.751 177.173 C 178.817 177.107,180.284 177.074,182.011 177.100 L 185.151 177.148 190.426 185.864 " stroke="none" fill="#00649c" fill-rule="evenodd"></path><path id="path2" d="M264.719 72.464 C 263.690 72.918,263.061 74.081,263.061 75.529 L 263.061 76.406 262.189 76.406 L 261.317 76.406 261.317 77.017 L 261.317 77.628 262.189 77.628 L 263.061 77.628 263.061 81.378 L 263.061 85.129 263.934 85.129 L 264.806 85.129 264.806 81.378 L 264.806 77.628 265.940 77.628 L 267.074 77.628 267.074 77.017 L 267.074 76.406 265.918 76.406 L 264.763 76.406 264.845 75.417 C 264.960 74.028,265.525 73.533,266.841 73.669 L 267.761 73.763 267.871 73.177 C 267.931 72.855,267.929 72.508,267.866 72.406 C 267.703 72.142,265.349 72.186,264.719 72.464 M193.580 73.228 C 192.872 74.011,193.413 75.066,194.478 74.977 C 195.868 74.859,195.880 73.071,194.491 72.953 C 194.063 72.916,193.787 73.000,193.580 73.228 M229.341 73.228 C 228.644 73.999,229.230 75.082,230.288 74.980 C 231.635 74.849,231.603 73.067,230.252 72.953 C 229.824 72.916,229.548 73.000,229.341 73.228 M235.020 73.312 L 234.278 73.490 234.278 74.948 L 234.278 76.406 233.406 76.406 L 232.534 76.406 232.534 77.017 L 232.534 77.628 233.406 77.628 L 234.278 77.628 234.279 80.462 C 234.281 84.936,234.655 85.492,237.462 85.191 L 238.465 85.084 238.465 84.329 L 238.465 83.575 237.636 83.669 C 236.179 83.833,236.119 83.711,236.054 80.433 L 235.999 77.628 237.232 77.628 L 238.465 77.628 238.465 77.017 L 238.465 76.406 237.244 76.406 L 236.023 76.406 236.023 74.749 C 236.023 73.838,235.964 73.101,235.892 73.113 C 235.820 73.124,235.427 73.214,235.020 73.312 M171.304 77.939 C 171.304 84.512,172.076 85.640,176.305 85.245 C 179.779 84.920,180.269 84.023,180.342 77.846 L 180.396 73.266 179.513 73.266 L 178.631 73.266 178.630 77.584 C 178.630 83.147,178.368 83.732,175.878 83.733 C 173.273 83.734,173.050 83.256,173.049 77.671 L 173.048 73.266 172.176 73.266 L 171.304 73.266 171.304 77.939 M186.393 76.435 C 186.201 76.541,185.829 76.828,185.565 77.073 L 185.085 77.518 185.085 76.962 C 185.085 76.412,185.077 76.406,184.213 76.406 L 183.341 76.406 183.341 80.768 L 183.341 85.129 184.213 85.129 L 185.085 85.129 185.085 82.805 C 185.085 79.337,185.666 77.940,187.214 77.689 C 188.662 77.454,188.920 78.137,188.922 82.207 L 188.923 85.129 189.813 85.129 L 190.703 85.129 190.636 81.509 C 190.563 77.512,190.444 77.010,189.452 76.497 C 188.854 76.187,186.913 76.148,186.393 76.435 M193.458 80.680 L 193.458 85.129 194.331 85.129 L 195.203 85.129 195.203 80.680 L 195.203 76.232 194.331 76.232 L 193.458 76.232 193.458 80.680 M207.747 76.638 C 205.029 78.074,205.019 83.602,207.732 84.831 C 208.678 85.260,210.843 85.334,212.080 84.979 C 212.810 84.770,212.822 84.754,212.822 83.988 C 212.822 83.560,212.802 83.211,212.778 83.212 C 212.754 83.214,212.420 83.328,212.037 83.466 C 209.731 84.297,207.588 83.320,207.588 81.440 L 207.588 80.768 210.379 80.768 L 213.171 80.768 213.167 79.765 C 213.156 76.856,210.373 75.251,207.747 76.638 M217.703 76.892 L 217.042 77.552 217.135 76.979 L 217.228 76.406 216.333 76.406 L 215.438 76.406 215.438 80.768 L 215.438 85.129 216.292 85.129 L 217.146 85.129 217.214 82.381 C 217.299 78.967,217.825 77.802,219.281 77.802 C 219.805 77.802,219.974 77.543,219.974 76.741 C 219.974 75.897,218.607 75.988,217.703 76.892 M222.638 76.571 C 221.720 76.992,221.196 77.806,221.196 78.814 C 221.194 80.233,221.669 80.690,224.032 81.544 C 226.528 82.447,224.709 84.264,221.921 83.652 L 221.369 83.531 221.369 84.317 L 221.369 85.104 222.341 85.225 C 227.138 85.824,228.895 81.236,224.385 79.889 C 221.664 79.076,223.055 77.089,225.906 77.715 L 226.450 77.834 226.395 77.077 L 226.341 76.319 224.858 76.276 C 223.695 76.242,223.217 76.306,222.638 76.571 M229.219 80.680 L 229.219 85.129 230.092 85.129 L 230.964 85.129 230.964 80.680 L 230.964 76.232 230.092 76.232 L 229.219 76.232 229.219 80.680 M254.688 76.501 C 251.591 77.887,251.296 83.348,254.234 84.911 C 257.916 86.869,261.914 82.097,259.944 78.096 C 259.141 76.464,256.537 75.674,254.688 76.501 M198.434 80.724 L 200.054 85.041 200.969 85.041 L 201.885 85.041 203.427 81.029 C 204.276 78.823,205.015 76.880,205.070 76.712 C 205.157 76.446,205.046 76.406,204.219 76.406 L 203.268 76.406 202.259 79.241 C 201.704 80.800,201.199 82.225,201.135 82.407 C 201.056 82.633,200.675 81.744,199.922 79.572 L 198.823 76.406 197.819 76.406 L 196.815 76.406 198.434 80.724 M240.832 80.699 L 242.459 84.991 242.105 85.935 C 241.509 87.528,241.028 87.960,239.928 87.891 L 239.004 87.833 238.891 88.503 C 238.737 89.414,238.929 89.545,240.281 89.459 C 242.432 89.322,242.766 88.831,245.352 82.002 C 247.706 75.784,247.585 76.406,246.439 76.406 L 245.516 76.406 244.458 79.493 L 243.399 82.579 243.088 81.629 C 242.916 81.107,242.426 79.719,241.997 78.543 L 241.219 76.406 240.212 76.406 L 239.205 76.406 240.832 80.699 M210.839 78.015 C 211.054 78.234,211.283 78.628,211.347 78.892 L 211.464 79.372 209.526 79.372 L 207.587 79.372 207.818 78.805 C 208.339 77.524,209.944 77.104,210.839 78.015 M257.446 77.981 C 258.997 78.926,258.971 82.450,257.406 83.404 C 255.798 84.385,254.214 83.273,254.034 81.039 C 253.833 78.527,255.658 76.891,257.446 77.981 M201.657 98.125 L 201.657 104.492 202.529 104.492 L 203.402 104.492 203.402 98.125 L 203.402 91.758 202.529 91.758 L 201.657 91.758 201.657 98.125 M225.207 93.731 L 225.207 95.705 223.846 95.705 C 220.414 95.705,218.433 98.745,219.458 102.437 C 220.091 104.716,222.963 105.473,224.727 103.827 L 225.207 103.380 225.207 103.936 C 225.207 104.487,225.215 104.492,226.079 104.492 L 226.952 104.492 226.952 98.125 L 226.952 91.758 226.079 91.758 L 225.207 91.758 225.207 93.731 M206.580 92.552 C 206.114 92.879,206.050 93.858,206.467 94.275 C 206.837 94.645,207.643 94.621,207.997 94.230 C 208.628 93.533,208.141 92.281,207.239 92.281 C 207.090 92.281,206.794 92.403,206.580 92.552 M250.540 92.552 C 250.052 92.895,250.013 93.845,250.472 94.260 C 251.202 94.921,252.246 94.396,252.246 93.367 C 252.246 92.805,251.741 92.281,251.199 92.281 C 251.050 92.281,250.754 92.403,250.540 92.552 M172.089 98.412 C 170.938 101.590,169.969 104.258,169.937 104.341 C 169.906 104.424,170.303 104.492,170.822 104.492 L 171.764 104.492 172.208 103.227 L 172.651 101.962 175.074 101.914 L 177.497 101.866 177.950 103.135 L 178.404 104.405 179.412 104.458 C 180.180 104.498,180.401 104.457,180.342 104.283 C 180.300 104.158,179.328 101.486,178.183 98.344 L 176.101 92.633 175.142 92.634 L 174.182 92.634 172.089 98.412 M235.046 93.047 C 233.903 93.579,233.366 94.328,233.266 95.528 C 233.109 97.422,233.718 98.225,236.038 99.187 C 240.068 100.858,238.509 104.172,234.279 102.927 C 233.402 102.669,233.406 102.665,233.406 103.612 C 233.406 104.657,233.673 104.755,236.191 104.634 C 238.837 104.508,240.200 103.299,240.206 101.072 C 240.211 99.447,239.854 99.034,237.398 97.824 C 235.754 97.014,235.330 96.727,235.156 96.306 C 234.497 94.715,236.594 93.596,239.014 94.247 C 239.511 94.381,239.885 93.070,239.437 92.763 C 238.954 92.433,235.948 92.627,235.046 93.047 M176.157 98.081 L 177.019 100.480 175.108 100.480 C 173.666 100.480,173.211 100.426,173.254 100.262 C 173.626 98.823,175.078 95.135,175.175 95.380 C 175.242 95.546,175.684 96.762,176.157 98.081 M185.172 95.857 C 184.788 95.993,184.298 96.308,184.082 96.557 L 183.689 97.010 183.689 96.390 C 183.689 95.771,183.688 95.770,182.904 95.770 L 182.119 95.770 182.119 102.311 L 182.119 108.853 182.904 108.853 L 183.689 108.853 183.689 106.760 L 183.689 104.666 184.954 104.659 C 187.924 104.641,189.415 103.234,189.585 100.291 C 189.791 96.740,187.938 94.879,185.172 95.857 M195.116 95.805 C 194.828 95.905,194.337 96.228,194.025 96.523 L 193.458 97.059 193.458 96.415 L 193.458 95.770 192.673 95.770 L 191.888 95.770 191.888 102.311 L 191.888 108.853 192.761 108.853 L 193.633 108.853 193.633 106.782 L 193.633 104.710 195.072 104.631 C 198.068 104.467,199.431 102.955,199.431 99.797 C 199.431 96.589,197.636 94.928,195.116 95.805 M212.996 95.790 C 211.258 96.313,210.319 97.898,210.325 100.297 C 210.333 103.352,211.563 104.654,214.445 104.663 C 216.767 104.669,217.357 104.436,217.357 103.512 C 217.357 103.091,217.338 102.748,217.314 102.749 C 217.290 102.750,216.885 102.868,216.414 103.011 C 213.953 103.757,212.125 102.809,212.124 100.785 L 212.124 100.131 214.938 100.131 L 217.753 100.131 217.666 98.910 C 217.488 96.429,215.435 95.057,212.996 95.790 M244.861 95.835 C 242.747 96.429,241.863 97.961,241.986 100.820 C 242.107 103.638,243.034 104.579,245.691 104.579 C 248.026 104.579,248.234 104.492,248.234 103.510 C 248.234 102.722,248.226 102.712,247.754 102.839 C 244.959 103.591,243.693 102.745,243.703 100.131 C 243.711 97.856,245.179 96.833,247.710 97.340 C 248.162 97.430,248.486 96.301,248.115 95.930 C 247.838 95.654,245.726 95.593,244.861 95.835 M256.879 95.845 C 255.166 96.481,254.327 97.857,254.312 100.052 C 254.291 103.338,255.460 104.654,258.405 104.663 C 260.727 104.669,261.317 104.436,261.317 103.512 C 261.317 103.091,261.297 102.748,261.273 102.749 C 261.249 102.750,260.844 102.868,260.373 103.011 C 257.933 103.752,256.084 102.793,256.084 100.788 L 256.084 100.131 258.895 100.131 L 261.705 100.131 261.638 98.934 C 261.495 96.418,259.254 94.963,256.879 95.845 M267.310 95.786 C 267.008 95.873,266.517 96.172,266.220 96.451 L 265.678 96.956 265.678 96.363 L 265.678 95.770 264.806 95.770 L 263.934 95.770 263.934 100.131 L 263.934 104.492 264.790 104.492 L 265.647 104.492 265.706 101.832 C 265.785 98.268,266.374 97.165,268.195 97.165 C 269.286 97.165,269.419 97.594,269.486 101.300 L 269.544 104.492 270.420 104.492 L 271.296 104.492 271.235 100.959 C 271.149 96.017,270.313 94.916,267.310 95.786 M276.309 95.823 C 274.017 96.470,272.827 99.128,273.526 102.042 C 274.049 104.220,276.229 105.177,279.051 104.467 L 279.845 104.267 279.731 103.557 C 279.591 102.683,279.609 102.699,279.036 102.917 C 276.828 103.757,275.205 102.649,275.212 100.305 C 275.219 97.801,276.871 96.522,279.036 97.345 C 279.600 97.559,279.559 97.599,279.696 96.704 C 279.826 95.854,279.776 95.820,278.192 95.689 C 277.550 95.636,276.779 95.691,276.309 95.823 M283.583 95.851 C 280.702 96.878,280.047 102.388,282.604 104.080 C 284.254 105.172,288.130 104.786,288.053 103.537 C 288.000 102.688,288.052 102.716,287.055 103.016 C 284.704 103.723,283.112 102.944,282.839 100.953 L 282.727 100.140 285.585 100.092 C 288.874 100.036,288.736 100.128,288.347 98.257 C 287.912 96.159,285.763 95.074,283.583 95.851 M292.455 95.758 C 289.318 96.522,289.241 99.720,292.335 100.734 C 295.080 101.634,294.573 103.399,291.627 103.199 L 290.275 103.107 290.275 103.887 L 290.275 104.666 291.888 104.663 C 294.507 104.656,295.857 103.766,295.857 102.045 C 295.857 100.529,295.655 100.325,293.048 99.200 C 290.973 98.305,291.931 96.708,294.308 97.101 L 295.334 97.271 295.334 96.543 C 295.334 95.639,294.208 95.332,292.455 95.758 M206.367 100.131 L 206.367 104.492 207.239 104.492 L 208.112 104.492 208.112 100.131 L 208.112 95.770 207.239 95.770 L 206.367 95.770 206.367 100.131 M250.327 100.131 L 250.327 104.492 251.199 104.492 L 252.072 104.492 252.072 100.131 L 252.072 95.770 251.199 95.770 L 250.327 95.770 250.327 100.131 M215.064 97.239 C 215.536 97.483,215.962 98.155,215.962 98.656 C 215.962 98.862,215.606 98.910,214.052 98.910 L 212.142 98.910 212.324 98.388 C 212.730 97.222,214.000 96.689,215.064 97.239 M225.110 99.173 C 225.097 101.639,224.508 102.916,223.255 103.191 C 222.012 103.464,221.237 102.598,221.097 100.780 C 220.903 98.257,222.186 96.858,224.419 97.160 L 225.120 97.255 225.110 99.173 M259.024 97.239 C 259.496 97.483,259.922 98.155,259.922 98.656 C 259.922 98.862,259.566 98.910,258.012 98.910 L 256.102 98.910 256.284 98.388 C 256.690 97.222,257.960 96.689,259.024 97.239 M285.994 97.383 C 286.241 97.599,286.515 98.031,286.602 98.343 L 286.762 98.910 284.855 98.910 C 282.819 98.910,282.772 98.884,283.209 98.039 C 283.770 96.953,285.135 96.632,285.994 97.383 M187.050 97.513 C 188.967 99.021,187.580 103.277,185.175 103.268 C 183.617 103.263,183.631 103.284,183.731 101.195 C 183.889 97.918,185.414 96.226,187.050 97.513 M196.905 97.558 C 199.070 99.868,196.730 104.247,193.909 103.165 C 193.572 103.036,193.515 100.127,193.826 99.005 C 194.266 97.422,196.010 96.602,196.905 97.558 M66.544 118.317 C 66.591 118.532,66.836 119.651,67.087 120.802 C 68.722 128.302,71.142 134.669,77.930 149.324 C 80.543 154.967,82.261 159.364,83.302 163.073 L 83.605 164.152 217.031 164.152 L 350.458 164.152 350.458 141.038 L 350.458 117.924 208.457 117.924 L 66.457 117.924 66.544 118.317 M158.574 125.610 C 160.304 125.827,162.842 126.628,164.133 127.366 L 165.043 127.885 164.181 128.879 C 163.707 129.426,163.016 130.214,162.645 130.629 L 161.971 131.385 160.864 130.860 C 154.109 127.658,146.199 133.052,146.187 140.870 C 146.174 148.660,154.431 154.055,161.154 150.649 L 161.987 150.226 163.514 151.979 L 165.041 153.731 164.465 154.084 C 160.936 156.250,155.897 156.694,151.473 155.227 C 140.830 151.698,137.618 137.893,145.608 130.020 C 149.009 126.669,153.858 125.020,158.574 125.610 M116.529 127.867 L 116.529 129.961 112.429 129.961 L 108.330 129.961 108.330 142.870 L 108.330 155.778 105.800 155.778 L 103.271 155.778 103.271 142.870 L 103.271 129.961 99.084 129.961 L 94.898 129.961 94.898 127.867 L 94.898 125.774 105.713 125.774 L 116.529 125.774 116.529 127.867 M137.462 127.867 L 137.462 129.961 132.054 129.961 L 126.646 129.961 126.646 134.145 L 126.646 138.328 131.225 138.375 L 135.805 138.421 135.854 140.384 L 135.903 142.346 131.275 142.346 L 126.646 142.346 126.646 146.969 L 126.646 151.592 132.054 151.592 L 137.462 151.592 137.462 153.685 L 137.462 155.778 129.525 155.778 L 121.587 155.778 121.587 140.776 L 121.587 125.774 129.525 125.774 L 137.462 125.774 137.462 127.867 M174.793 131.967 L 174.793 138.160 181.768 138.160 L 188.744 138.160 188.790 132.010 L 188.836 125.861 191.278 125.861 L 193.720 125.861 193.765 140.820 L 193.809 155.778 191.279 155.778 L 188.748 155.778 188.748 149.062 L 188.748 142.346 181.771 142.346 L 174.793 142.346 174.793 149.062 L 174.793 155.778 172.351 155.778 L 169.908 155.778 169.908 140.776 L 169.908 125.774 172.351 125.774 L 174.793 125.774 174.793 131.967 M210.909 130.179 C 212.374 132.601,214.806 136.625,216.314 139.119 C 217.821 141.614,219.599 144.690,220.264 145.955 L 221.474 148.255 221.400 137.010 L 221.325 125.764 223.746 125.813 L 226.167 125.861 226.211 140.824 L 226.256 155.786 222.998 155.739 L 219.740 155.691 214.268 146.620 C 211.259 141.631,208.246 136.489,207.573 135.194 C 206.900 133.899,206.390 133.075,206.440 133.362 C 206.489 133.650,206.584 138.812,206.651 144.832 L 206.773 155.778 204.302 155.778 L 201.832 155.778 201.832 140.776 L 201.832 125.774 205.038 125.774 L 208.244 125.774 210.909 130.179 M239.163 140.776 L 239.163 155.778 236.720 155.778 L 234.278 155.778 234.278 140.776 L 234.278 125.774 236.720 125.774 L 239.163 125.774 239.163 140.776 M252.288 132.596 L 252.333 139.418 257.665 132.640 L 262.997 125.861 266.011 125.814 C 267.815 125.785,269.001 125.831,268.965 125.928 C 268.932 126.017,266.315 129.242,263.149 133.094 C 259.983 136.947,257.368 140.166,257.339 140.247 C 257.299 140.360,267.904 153.854,269.306 155.473 C 269.556 155.762,269.397 155.778,266.261 155.778 L 262.953 155.778 257.643 148.620 L 252.333 141.462 252.288 148.620 L 252.242 155.778 249.715 155.778 L 247.187 155.778 247.187 140.893 C 247.187 132.705,247.239 125.954,247.303 125.890 C 247.367 125.826,248.505 125.774,249.831 125.774 L 252.242 125.774 252.288 132.596 M278.587 135.345 C 278.587 141.125,278.658 145.287,278.765 145.854 C 280.105 152.917,289.178 153.699,291.712 146.969 C 292.102 145.933,292.107 145.819,292.159 135.843 L 292.212 125.765 294.689 125.813 L 297.165 125.861 297.165 136.328 L 297.165 146.795 296.756 148.099 C 293.347 158.955,277.722 159.285,274.102 148.576 L 273.617 147.143 273.565 136.459 L 273.513 125.774 276.050 125.774 L 278.587 125.774 278.587 135.345 M315.866 135.456 C 317.628 140.733,319.292 145.914,319.565 146.969 L 320.059 148.888 320.262 148.103 C 320.827 145.916,321.916 142.525,324.606 134.584 L 327.560 125.861 330.548 125.814 C 332.533 125.782,333.537 125.827,333.537 125.947 C 333.537 126.180,337.868 154.661,338.001 155.299 L 338.100 155.778 335.473 155.778 C 332.890 155.778,332.844 155.772,332.760 155.386 C 332.577 154.557,330.054 137.101,329.847 135.238 C 329.588 132.908,329.528 132.857,329.128 134.637 C 328.960 135.386,327.389 140.430,325.636 145.845 L 322.451 155.691 319.850 155.691 L 317.250 155.691 314.147 146.358 C 312.441 141.225,310.812 136.084,310.527 134.932 C 310.169 133.486,310.005 133.039,309.998 133.485 C 309.980 134.513,307.788 153.205,307.450 155.212 L 307.354 155.778 304.825 155.778 L 302.296 155.778 302.395 155.212 C 302.450 154.900,303.434 148.325,304.583 140.602 C 305.731 132.878,306.712 126.381,306.763 126.162 C 306.855 125.767,306.865 125.766,309.759 125.814 L 312.662 125.861 315.866 135.456 " stroke="none" fill="#71787d" fill-rule="evenodd"></path><path id="path3" d="M74.782 68.077 C 69.775 77.314,66.944 85.752,65.668 95.246 C 65.131 99.239,65.151 110.713,65.698 112.560 C 65.784 112.850,68.149 112.865,112.179 112.865 L 158.570 112.865 158.570 89.751 L 158.570 66.638 117.066 66.638 L 75.562 66.638 74.782 68.077 M113.563 76.581 L 113.563 78.674 107.545 78.674 L 101.526 78.674 101.526 82.861 L 101.526 87.048 106.847 87.048 L 112.167 87.048 112.167 89.054 L 112.167 91.060 106.847 91.060 L 101.526 91.060 101.526 97.776 L 101.526 104.492 98.997 104.492 L 96.468 104.492 96.468 89.606 C 96.468 81.419,96.520 74.668,96.584 74.604 C 96.648 74.540,100.494 74.488,105.132 74.488 L 113.563 74.488 113.563 76.581 M123.855 80.680 L 123.855 86.873 130.831 86.873 L 137.806 86.873 137.852 80.724 L 137.898 74.575 140.340 74.575 L 142.782 74.575 142.827 89.533 L 142.872 104.492 140.341 104.492 L 137.811 104.492 137.811 97.776 L 137.811 91.060 130.833 91.060 L 123.855 91.060 123.855 97.776 L 123.855 104.492 121.413 104.492 L 118.971 104.492 118.971 89.490 L 118.971 74.488 121.413 74.488 L 123.855 74.488 123.855 80.680 M156.261 125.552 C 156.575 125.590,157.046 125.590,157.308 125.550 C 157.570 125.510,157.314 125.478,156.738 125.479 C 156.162 125.480,155.948 125.513,156.261 125.552 M188.827 132.054 C 188.827 135.460,188.850 136.853,188.879 135.150 C 188.907 133.447,188.907 130.661,188.879 128.958 C 188.850 127.255,188.827 128.648,188.827 132.054 M193.716 140.863 C 193.716 149.115,193.738 152.465,193.764 148.308 C 193.790 144.151,193.790 137.400,193.764 133.306 C 193.737 129.211,193.716 132.612,193.716 140.863 M226.163 140.863 C 226.163 149.115,226.184 152.465,226.210 148.308 C 226.236 144.151,226.236 137.400,226.210 133.306 C 226.184 129.211,226.163 132.612,226.163 140.863 M247.270 140.863 C 247.270 149.115,247.292 152.465,247.318 148.308 C 247.344 144.151,247.344 137.400,247.318 133.306 C 247.292 129.211,247.270 132.612,247.270 140.863 M297.160 135.892 C 297.160 141.409,297.182 143.666,297.209 140.907 C 297.236 138.149,297.236 133.635,297.209 130.877 C 297.182 128.118,297.160 130.375,297.160 135.892 M108.238 142.870 C 108.238 150.017,108.260 152.942,108.286 149.368 C 108.312 145.794,108.312 139.945,108.286 136.372 C 108.260 132.798,108.238 135.722,108.238 142.870 M126.547 134.147 C 126.547 136.498,126.572 137.460,126.602 136.284 C 126.632 135.109,126.632 133.186,126.602 132.010 C 126.572 130.835,126.547 131.797,126.547 134.147 M206.408 134.147 C 206.408 134.483,206.444 134.621,206.487 134.453 C 206.531 134.285,206.531 134.010,206.487 133.842 C 206.444 133.674,206.408 133.812,206.408 134.147 M135.783 140.427 C 135.783 141.531,135.812 141.982,135.846 141.430 C 135.881 140.879,135.881 139.976,135.846 139.424 C 135.812 138.873,135.783 139.324,135.783 140.427 M206.622 148.277 C 206.622 152.451,206.644 154.158,206.672 152.072 C 206.700 149.985,206.700 146.570,206.672 144.483 C 206.644 142.396,206.622 144.104,206.622 148.277 M126.548 146.969 C 126.548 149.560,126.572 150.644,126.602 149.378 C 126.632 148.113,126.632 145.993,126.602 144.668 C 126.573 143.343,126.548 144.379,126.548 146.969 M188.828 149.062 C 188.828 152.804,188.851 154.310,188.879 152.409 C 188.907 150.508,188.907 147.446,188.879 145.606 C 188.851 143.765,188.828 145.321,188.828 149.062 M221.419 143.655 C 221.421 144.134,221.454 144.310,221.495 144.045 C 221.535 143.780,221.534 143.387,221.492 143.172 C 221.451 142.958,221.418 143.175,221.419 143.655 M156.433 151.715 C 156.648 151.756,157.002 151.756,157.218 151.715 C 157.433 151.673,157.257 151.639,156.825 151.639 C 156.393 151.639,156.217 151.673,156.433 151.715 M284.998 156.425 C 285.214 156.466,285.567 156.466,285.783 156.425 C 285.999 156.383,285.822 156.349,285.390 156.349 C 284.959 156.349,284.782 156.383,284.998 156.425 M100.008 177.190 C 100.756 177.223,101.933 177.223,102.625 177.190 C 103.316 177.157,102.704 177.130,101.265 177.130 C 99.826 177.131,99.260 177.158,100.008 177.190 M117.096 177.190 C 117.839 177.223,119.056 177.223,119.799 177.190 C 120.543 177.158,119.935 177.131,118.447 177.131 C 116.960 177.131,116.352 177.158,117.096 177.190 M134.358 177.190 C 135.001 177.223,136.100 177.223,136.800 177.190 C 137.500 177.157,136.973 177.130,135.630 177.129 C 134.287 177.129,133.714 177.156,134.358 177.190 M144.650 177.190 C 145.293 177.223,146.392 177.223,147.092 177.190 C 147.792 177.157,147.266 177.130,145.922 177.129 C 144.579 177.129,144.007 177.156,144.650 177.190 M160.183 177.191 C 162.366 177.219,165.938 177.219,168.120 177.191 C 170.303 177.164,168.517 177.141,164.152 177.141 C 159.786 177.141,158.000 177.164,160.183 177.191 M178.711 177.279 C 178.665 177.399,178.648 184.169,178.674 192.324 L 178.720 207.152 178.762 192.198 L 178.805 177.243 181.989 177.191 L 185.172 177.139 181.983 177.100 C 179.563 177.070,178.774 177.113,178.711 177.279 M198.250 177.275 C 198.202 177.398,198.185 180.285,198.212 183.690 L 198.260 189.882 198.301 183.559 L 198.343 177.235 200.610 177.235 L 202.876 177.235 202.922 192.106 L 202.968 206.978 202.967 192.063 L 202.966 177.148 200.651 177.099 C 198.891 177.062,198.315 177.104,198.250 177.275 M183.403 191.452 C 183.402 192.316,183.431 192.691,183.468 192.286 C 183.505 191.881,183.505 191.175,183.469 190.716 C 183.433 190.257,183.403 190.589,183.403 191.452 M198.387 196.860 C 198.389 197.244,198.424 197.380,198.466 197.163 C 198.508 196.946,198.506 196.632,198.463 196.465 C 198.419 196.299,198.385 196.476,198.387 196.860 " stroke="none" fill="#8bb111" fill-rule="evenodd"></path><path id="path4" d="M96.548 74.706 C 96.502 74.826,96.485 81.596,96.511 89.751 L 96.557 104.579 96.599 89.621 L 96.642 74.662 105.010 74.662 L 113.378 74.662 113.433 76.712 L 113.488 78.761 113.526 76.625 L 113.563 74.488 105.097 74.488 C 98.485 74.488,96.613 74.535,96.548 74.706 M120.148 74.617 C 120.844 74.650,121.982 74.650,122.678 74.617 C 123.373 74.584,122.804 74.557,121.413 74.557 C 120.022 74.557,119.453 74.584,120.148 74.617 M137.892 74.702 C 137.845 74.825,137.828 77.634,137.854 80.943 L 137.903 86.960 137.944 80.811 L 137.985 74.662 140.339 74.662 L 142.693 74.662 142.739 89.533 L 142.785 104.405 142.784 89.490 L 142.782 74.575 140.380 74.526 C 138.549 74.489,137.958 74.531,137.892 74.702 M101.427 82.861 C 101.427 85.212,101.452 86.173,101.482 84.998 C 101.512 83.823,101.512 81.899,101.482 80.724 C 101.452 79.549,101.427 80.510,101.427 82.861 M101.431 97.776 C 101.431 101.518,101.454 103.024,101.483 101.122 C 101.511 99.221,101.511 96.160,101.483 94.319 C 101.454 92.478,101.431 94.034,101.431 97.776 M137.890 97.776 C 137.890 101.518,137.913 103.024,137.941 101.122 C 137.970 99.221,137.970 96.160,137.941 94.319 C 137.913 92.478,137.890 94.034,137.890 97.776 M100.262 125.905 C 103.260 125.932,108.166 125.932,111.164 125.905 C 114.163 125.878,111.710 125.856,105.713 125.856 C 99.717 125.856,97.263 125.878,100.262 125.905 M121.608 126.167 C 121.623 126.462,121.648 126.484,121.708 126.254 C 121.782 125.969,122.303 125.949,129.525 125.949 C 136.747 125.949,137.267 125.969,137.342 126.254 C 137.402 126.484,137.426 126.462,137.442 126.167 L 137.462 125.774 129.525 125.774 L 121.587 125.774 121.608 126.167 M171.086 125.904 C 171.782 125.937,172.920 125.937,173.615 125.904 C 174.311 125.871,173.742 125.843,172.351 125.843 C 170.959 125.843,170.390 125.871,171.086 125.904 M190.005 125.903 C 190.649 125.937,191.748 125.937,192.448 125.904 C 193.147 125.871,192.621 125.843,191.278 125.843 C 189.935 125.843,189.362 125.870,190.005 125.903 M201.858 126.341 C 201.883 126.879,201.888 126.883,201.957 126.421 L 202.031 125.934 205.229 125.985 C 206.988 126.013,208.391 125.977,208.347 125.905 C 208.302 125.833,206.818 125.774,205.049 125.774 L 201.832 125.774 201.858 126.341 M222.452 125.903 C 223.095 125.937,224.194 125.937,224.894 125.904 C 225.594 125.871,225.068 125.843,223.724 125.843 C 222.381 125.843,221.809 125.870,222.452 125.903 M248.539 125.904 C 249.235 125.937,250.373 125.937,251.068 125.904 C 251.764 125.871,251.195 125.843,249.804 125.843 C 248.413 125.843,247.843 125.871,248.539 125.904 M265.904 125.905 C 268.026 125.943,268.800 126.011,268.712 126.154 C 268.637 126.275,268.668 126.303,268.791 126.227 C 269.377 125.865,268.779 125.777,265.983 125.813 L 262.974 125.852 265.904 125.905 M273.608 125.992 C 273.562 126.112,273.546 130.685,273.572 136.154 L 273.618 146.097 273.660 136.027 L 273.703 125.958 276.188 125.905 L 278.674 125.851 276.183 125.813 C 274.322 125.784,273.671 125.829,273.608 125.992 M293.371 125.904 C 294.067 125.937,295.205 125.937,295.901 125.904 C 296.596 125.871,296.027 125.843,294.636 125.843 C 293.245 125.843,292.676 125.871,293.371 125.904 M307.719 125.892 C 310.027 126.018,312.739 126.025,312.664 125.905 C 312.620 125.833,311.273 125.789,309.671 125.807 C 308.070 125.825,307.191 125.864,307.719 125.892 M327.514 125.956 C 327.449 126.061,327.443 126.193,327.501 126.251 C 327.559 126.308,327.606 126.264,327.606 126.152 C 327.606 125.886,333.290 125.861,333.422 126.127 C 333.471 126.226,333.490 126.206,333.466 126.084 C 333.406 125.789,327.693 125.666,327.514 125.956 M252.116 126.734 C 252.117 127.117,252.153 127.254,252.195 127.037 C 252.237 126.820,252.235 126.506,252.191 126.339 C 252.148 126.172,252.114 126.350,252.116 126.734 M201.872 127.519 C 201.872 127.854,201.908 127.992,201.952 127.824 C 201.996 127.656,201.996 127.381,201.952 127.213 C 201.908 127.045,201.872 127.183,201.872 127.519 M201.884 129.089 C 201.884 129.616,201.917 129.832,201.957 129.568 C 201.997 129.304,201.997 128.873,201.957 128.609 C 201.917 128.345,201.884 128.561,201.884 129.089 M252.116 129.874 C 252.117 130.257,252.153 130.394,252.195 130.177 C 252.237 129.960,252.235 129.646,252.191 129.479 C 252.148 129.312,252.114 129.490,252.116 129.874 M137.287 129.602 C 137.287 129.692,136.954 129.796,136.546 129.833 L 135.805 129.900 136.633 129.930 C 137.267 129.954,137.462 129.899,137.462 129.699 C 137.462 129.555,137.423 129.437,137.375 129.437 C 137.327 129.437,137.287 129.511,137.287 129.602 M128.347 129.909 C 128.563 129.951,128.916 129.951,129.132 129.909 C 129.348 129.868,129.171 129.834,128.740 129.834 C 128.308 129.834,128.131 129.868,128.347 129.909 M132.883 129.909 C 133.099 129.951,133.452 129.951,133.668 129.909 C 133.884 129.868,133.707 129.834,133.275 129.834 C 132.843 129.834,132.667 129.868,132.883 129.909 M156.348 129.911 C 156.613 129.952,157.005 129.951,157.220 129.909 C 157.435 129.868,157.218 129.835,156.738 129.836 C 156.258 129.838,156.083 129.871,156.348 129.911 M103.311 131.531 C 103.311 131.867,103.347 132.004,103.391 131.836 C 103.435 131.668,103.435 131.393,103.391 131.225 C 103.347 131.058,103.311 131.195,103.311 131.531 M201.891 132.490 C 201.892 133.258,201.923 133.550,201.960 133.140 C 201.996 132.729,201.996 132.101,201.958 131.744 C 201.921 131.387,201.891 131.723,201.891 132.490 M121.637 132.839 C 121.639 133.319,121.673 133.494,121.713 133.229 C 121.753 132.964,121.752 132.572,121.710 132.357 C 121.669 132.142,121.636 132.359,121.637 132.839 M103.311 133.101 C 103.311 133.437,103.347 133.574,103.391 133.406 C 103.435 133.238,103.435 132.963,103.391 132.795 C 103.347 132.628,103.311 132.765,103.311 133.101 M278.453 133.973 C 278.453 134.309,278.489 134.446,278.533 134.278 C 278.577 134.110,278.577 133.836,278.533 133.668 C 278.489 133.500,278.453 133.637,278.453 133.973 M309.853 133.973 C 309.853 134.309,309.889 134.446,309.933 134.278 C 309.977 134.110,309.977 133.836,309.933 133.668 C 309.889 133.500,309.853 133.637,309.853 133.973 M252.130 134.845 C 252.130 135.565,252.161 135.859,252.199 135.499 C 252.236 135.140,252.236 134.551,252.199 134.191 C 252.161 133.831,252.130 134.126,252.130 134.845 M103.321 134.584 C 103.322 135.063,103.356 135.239,103.396 134.974 C 103.436 134.708,103.435 134.316,103.394 134.101 C 103.352 133.887,103.319 134.104,103.321 134.584 M121.628 134.845 C 121.628 135.181,121.664 135.318,121.708 135.150 C 121.752 134.983,121.752 134.708,121.708 134.540 C 121.664 134.372,121.628 134.509,121.628 134.845 M206.421 135.630 C 206.422 136.206,206.455 136.420,206.494 136.107 C 206.532 135.793,206.532 135.322,206.492 135.060 C 206.452 134.798,206.420 135.055,206.421 135.630 M103.315 136.677 C 103.317 137.061,103.352 137.197,103.394 136.980 C 103.436 136.763,103.434 136.449,103.391 136.282 C 103.347 136.116,103.313 136.293,103.315 136.677 M278.457 137.026 C 278.458 137.410,278.494 137.546,278.536 137.329 C 278.578 137.112,278.576 136.798,278.532 136.631 C 278.489 136.464,278.455 136.642,278.457 137.026 M201.872 137.113 C 201.872 137.449,201.908 137.586,201.952 137.418 C 201.996 137.250,201.996 136.976,201.952 136.808 C 201.908 136.640,201.872 136.777,201.872 137.113 M206.411 137.375 C 206.413 137.758,206.449 137.895,206.491 137.678 C 206.532 137.461,206.531 137.147,206.487 136.980 C 206.443 136.813,206.409 136.991,206.411 137.375 M121.643 138.334 C 121.643 138.958,121.675 139.213,121.714 138.901 C 121.752 138.589,121.752 138.079,121.714 137.767 C 121.675 137.455,121.643 137.710,121.643 138.334 M252.102 138.727 C 252.073 139.516,252.256 139.788,252.524 139.354 C 252.599 139.233,252.572 139.200,252.458 139.271 C 252.334 139.347,252.243 139.127,252.199 138.643 L 252.132 137.898 252.102 138.727 M178.325 138.280 C 178.493 138.324,178.768 138.324,178.936 138.280 C 179.104 138.236,178.966 138.200,178.631 138.200 C 178.295 138.200,178.157 138.236,178.325 138.280 M181.293 138.285 C 181.558 138.325,181.951 138.324,182.166 138.282 C 182.380 138.241,182.163 138.208,181.683 138.210 C 181.204 138.211,181.028 138.245,181.293 138.285 M183.126 138.286 C 183.439 138.325,183.910 138.324,184.172 138.284 C 184.434 138.244,184.178 138.213,183.602 138.214 C 183.027 138.215,182.812 138.247,183.126 138.286 M187.311 138.283 C 187.528 138.325,187.842 138.323,188.009 138.279 C 188.176 138.236,187.998 138.202,187.614 138.204 C 187.231 138.206,187.094 138.241,187.311 138.283 M127.041 138.459 C 127.306 138.499,127.699 138.498,127.913 138.457 C 128.128 138.415,127.911 138.383,127.431 138.384 C 126.952 138.385,126.776 138.419,127.041 138.459 M129.045 138.462 C 129.453 138.499,130.120 138.499,130.528 138.462 C 130.935 138.425,130.602 138.395,129.786 138.395 C 128.971 138.395,128.637 138.425,129.045 138.462 M133.760 138.462 C 134.170 138.499,134.798 138.498,135.155 138.461 C 135.512 138.423,135.177 138.393,134.409 138.394 C 133.642 138.394,133.349 138.425,133.760 138.462 M103.321 139.294 C 103.322 139.773,103.356 139.949,103.396 139.684 C 103.436 139.418,103.435 139.026,103.394 138.811 C 103.352 138.597,103.319 138.814,103.321 139.294 M141.175 140.166 C 141.176 140.645,141.210 140.821,141.250 140.556 C 141.290 140.291,141.289 139.898,141.248 139.684 C 141.207 139.469,141.174 139.686,141.175 140.166 M146.050 139.904 C 146.050 140.240,146.086 140.377,146.130 140.209 C 146.174 140.041,146.174 139.767,146.130 139.599 C 146.086 139.431,146.050 139.568,146.050 139.904 M201.879 140.078 C 201.879 140.510,201.913 140.687,201.955 140.471 C 201.996 140.255,201.996 139.902,201.955 139.686 C 201.913 139.470,201.879 139.647,201.879 140.078 M121.650 141.300 C 121.650 142.211,121.680 142.584,121.716 142.128 C 121.752 141.672,121.752 140.927,121.716 140.471 C 121.680 140.015,121.650 140.388,121.650 141.300 M221.432 141.300 C 221.432 142.211,221.462 142.584,221.498 142.128 C 221.534 141.672,221.534 140.927,221.498 140.471 C 221.462 140.015,221.432 140.388,221.432 141.300 M201.879 141.648 C 201.879 142.080,201.913 142.257,201.955 142.041 C 201.996 141.825,201.996 141.472,201.955 141.256 C 201.913 141.040,201.879 141.217,201.879 141.648 M146.050 141.648 C 146.050 141.984,146.086 142.122,146.130 141.954 C 146.174 141.786,146.174 141.511,146.130 141.343 C 146.086 141.175,146.050 141.313,146.050 141.648 M103.315 141.910 C 103.317 142.294,103.352 142.430,103.394 142.213 C 103.436 141.996,103.434 141.682,103.391 141.516 C 103.347 141.349,103.313 141.526,103.315 141.910 M278.453 141.997 C 278.453 142.333,278.489 142.471,278.533 142.303 C 278.577 142.135,278.577 141.860,278.533 141.692 C 278.489 141.524,278.453 141.662,278.453 141.997 M278.453 143.218 C 278.453 143.554,278.489 143.692,278.533 143.524 C 278.577 143.356,278.577 143.081,278.533 142.913 C 278.489 142.745,278.453 142.883,278.453 143.218 M103.315 143.655 C 103.317 144.038,103.352 144.175,103.394 143.958 C 103.436 143.741,103.434 143.427,103.391 143.260 C 103.347 143.093,103.313 143.271,103.315 143.655 M201.891 144.701 C 201.892 145.469,201.923 145.761,201.960 145.351 C 201.996 144.941,201.996 144.313,201.958 143.955 C 201.921 143.598,201.891 143.934,201.891 144.701 M252.119 145.137 C 252.119 145.569,252.153 145.746,252.195 145.530 C 252.236 145.314,252.236 144.961,252.195 144.745 C 252.153 144.529,252.119 144.706,252.119 145.137 M121.628 145.835 C 121.628 146.171,121.664 146.308,121.708 146.140 C 121.752 145.973,121.752 145.698,121.708 145.530 C 121.664 145.362,121.628 145.499,121.628 145.835 M221.515 147.336 C 221.483 147.969,221.505 148.565,221.563 148.659 C 221.622 148.753,221.684 148.235,221.701 147.507 C 221.738 145.882,221.596 145.750,221.515 147.336 M103.328 148.190 C 103.329 148.862,103.360 149.115,103.398 148.753 C 103.436 148.391,103.435 147.842,103.397 147.532 C 103.358 147.222,103.327 147.519,103.328 148.190 M252.126 148.365 C 252.127 148.940,252.159 149.155,252.198 148.841 C 252.237 148.528,252.236 148.057,252.196 147.795 C 252.156 147.532,252.125 147.789,252.126 148.365 M149.237 148.626 C 149.612 149.010,149.957 149.324,150.005 149.324 C 150.053 149.324,149.786 149.010,149.411 148.626 C 149.037 148.242,148.691 147.928,148.643 147.928 C 148.595 147.928,148.862 148.242,149.237 148.626 M201.879 150.196 C 201.879 150.628,201.913 150.805,201.955 150.589 C 201.996 150.373,201.996 150.020,201.955 149.804 C 201.913 149.588,201.879 149.765,201.879 150.196 M121.631 150.283 C 121.633 150.667,121.669 150.804,121.711 150.587 C 121.753 150.370,121.751 150.056,121.707 149.889 C 121.664 149.722,121.629 149.900,121.631 150.283 M103.311 150.545 C 103.311 150.881,103.347 151.018,103.391 150.850 C 103.435 150.683,103.435 150.408,103.391 150.240 C 103.347 150.072,103.311 150.209,103.311 150.545 M285.085 151.712 C 285.253 151.756,285.528 151.756,285.696 151.712 C 285.863 151.668,285.726 151.632,285.390 151.632 C 285.055 151.632,284.917 151.668,285.085 151.712 M137.337 152.900 C 137.339 153.380,137.372 153.555,137.413 153.290 C 137.453 153.025,137.452 152.633,137.410 152.418 C 137.369 152.203,137.336 152.420,137.337 152.900 M276.755 152.987 C 277.130 153.371,277.476 153.685,277.524 153.685 C 277.572 153.685,277.305 153.371,276.930 152.987 C 276.555 152.604,276.209 152.290,276.161 152.290 C 276.113 152.290,276.381 152.604,276.755 152.987 M121.635 153.685 C 121.635 154.117,121.669 154.294,121.711 154.078 C 121.752 153.862,121.752 153.509,121.711 153.293 C 121.669 153.077,121.635 153.253,121.635 153.685 M252.116 153.947 C 252.117 154.331,252.153 154.467,252.195 154.250 C 252.237 154.033,252.235 153.719,252.191 153.552 C 252.148 153.385,252.114 153.563,252.116 153.947 M103.318 154.557 C 103.318 154.989,103.352 155.166,103.394 154.950 C 103.436 154.734,103.436 154.381,103.394 154.165 C 103.352 153.949,103.318 154.126,103.318 154.557 M252.112 155.255 C 252.112 155.591,252.148 155.728,252.192 155.560 C 252.236 155.392,252.236 155.118,252.192 154.950 C 252.148 154.782,252.112 154.919,252.112 155.255 M155.388 156.076 C 155.605 156.118,155.919 156.116,156.086 156.073 C 156.253 156.029,156.075 155.995,155.691 155.997 C 155.307 155.999,155.171 156.035,155.388 156.076 M143.476 192.150 C 143.476 200.401,143.498 203.751,143.524 199.594 C 143.550 195.438,143.550 188.687,143.524 184.592 C 143.498 180.498,143.476 183.899,143.476 192.150 M161.090 181.294 C 161.043 181.416,161.026 183.359,161.052 185.612 L 161.099 189.708 165.672 189.754 L 170.246 189.801 170.304 191.673 L 170.362 193.546 170.353 191.627 L 170.345 189.708 165.765 189.661 L 161.186 189.615 161.186 185.434 L 161.186 181.252 166.638 181.204 L 172.089 181.155 166.632 181.114 C 162.350 181.082,161.157 181.121,161.090 181.294 M183.210 185.696 C 183.212 186.079,183.248 186.216,183.290 185.999 C 183.331 185.782,183.330 185.468,183.286 185.301 C 183.242 185.134,183.208 185.312,183.210 185.696 M183.420 200.000 C 183.420 203.934,183.443 205.568,183.471 203.631 C 183.499 201.695,183.499 198.476,183.471 196.479 C 183.443 194.482,183.420 196.066,183.420 200.000 M161.095 198.256 L 161.099 202.966 166.550 202.969 L 172.002 202.973 166.597 202.923 L 161.192 202.873 161.141 198.209 L 161.090 193.546 161.095 198.256 M198.393 195.464 C 198.394 195.944,198.428 196.120,198.468 195.855 C 198.508 195.589,198.507 195.197,198.466 194.982 C 198.424 194.768,198.391 194.985,198.393 195.464 " stroke="none" fill="#b9bfc2" fill-rule="evenodd"></path></g></svg>