<?xml version="1.0" encoding="iso-8859-1"?>
<!-- Generator: Adobe Illustrator 19.0.0, SVG Export Plug-In . SVG Version: 6.00 Build 0)  -->
<svg version="1.1" id="Capa_1" xmlns="http://www.w3.org/2000/svg" xmlns:xlink="http://www.w3.org/1999/xlink" x="0px" y="0px"
	 viewBox="0 0 512 512" style="enable-background:new 0 0 512 512;" xml:space="preserve">
<path style="fill:#579ADD;" d="M500,512H12c-6.6,0-12-5.4-12-12V12C0,5.4,5.4,0,12,0h488c6.6,0,12,5.4,12,12v488
	C512,506.6,506.6,512,500,512z"/>
<path style="fill:#4987CE;" d="M20.576,499.654V12.346C20.576,5.556,26.132,0,32.922,0H12.346C5.556,0,0,5.556,0,12.346v487.308
	C0,506.444,5.556,512,12.346,512h20.576C26.132,512,20.576,506.444,20.576,499.654z"/>
<g>
	<path style="fill:#F2F2F2;" d="M128.239,184.497c0.842,0,1.524-0.682,1.524-1.524v-7.913c0-1.018-0.825-1.842-1.842-1.842H50.249
		c-0.394,0-0.713,0.319-0.713,0.713v9.769c0,0.44,0.357,0.797,0.797,0.797H128.239z"/>
	<path style="fill:#F2F2F2;" d="M51.243,338.082h78.034c0.616,0,1.116-0.5,1.116-1.116v-9.019c0-0.632-0.512-1.144-1.144-1.144
		H51.077c-0.504,0-0.912,0.408-0.912,0.912v9.289C50.165,337.6,50.647,338.082,51.243,338.082z"/>
	<path style="fill:#F2F2F2;" d="M164.185,249.308c0,0.558,0.453,1.011,1.011,1.011h87.027c0.466,0,0.914-0.158,1.273-0.455
		c1.636-1.353,6.421-5.522,8.705-9.751c0.262-0.484-0.087-1.073-0.638-1.073h-96.252c-0.622,0-1.126,0.504-1.126,1.126
		L164.185,249.308L164.185,249.308z"/>
	<path style="fill:#F2F2F2;" d="M49.535,204.602c0,1.011,0.819,1.83,1.83,1.83h76.194c1.217,0,2.204-0.987,2.204-2.204v-6.948
		c0-1.175-0.953-2.128-2.128-2.128H51.547c-1.111,0-2.011,0.901-2.011,2.011L49.535,204.602L49.535,204.602z"/>
	<path style="fill:#F2F2F2;" d="M73.72,282.915c-0.624,0-1.13,0.506-1.13,1.13v8.887c0,0.697,0.565,1.262,1.262,1.262h32.501
		c0.544,0,0.986-0.441,0.986-0.986v-9.247c0-0.578-0.469-1.047-1.047-1.047H73.72V282.915z"/>
	<path style="fill:#F2F2F2;" d="M107.338,240.57c0-0.845-0.685-1.529-1.529-1.529H74.138c-0.855,0-1.548,0.693-1.548,1.548v8.308
		c0,0.785,0.637,1.422,1.422,1.422h31.837c0.822,0,1.489-0.667,1.489-1.489V240.57z"/>
	<path style="fill:#F2F2F2;" d="M107.338,218.491c0-0.775-0.628-1.403-1.403-1.403h-32.18c-0.643,0-1.165,0.521-1.165,1.165v8.832
		c0,0.718,0.582,1.3,1.301,1.3h32.552c0.495,0,0.896-0.401,0.896-0.896L107.338,218.491L107.338,218.491z"/>
	<path style="fill:#F2F2F2;" d="M164.185,292.948c0,0.689,0.558,1.247,1.247,1.247h32.262c0.681,0,1.233-0.552,1.233-1.233v-9.009
		c0-0.573-0.464-1.037-1.037-1.037h-32.332c-0.758,0-1.373,0.615-1.373,1.373V292.948z"/>
	<path style="fill:#F2F2F2;" d="M107.338,262.343c0-0.752-0.61-1.362-1.362-1.362H73.928c-0.739,0-1.338,0.599-1.338,1.338v8.394
		c0,0.855,0.693,1.547,1.547,1.547h31.544c0.915,0,1.657-0.742,1.657-1.657V262.343z"/>
	<path style="fill:#F2F2F2;" d="M165.674,228.385h32.303c0.525,0,0.95-0.425,0.95-0.95v-9.232c0-0.616-0.499-1.115-1.115-1.115
		h-32.489c-0.629,0-1.139,0.51-1.139,1.139v8.668C164.185,227.718,164.851,228.385,165.674,228.385z"/>
	<path style="fill:#F2F2F2;" d="M164.185,271.017c0,0.687,0.557,1.243,1.243,1.243h96.229c0.508,0,0.826-0.541,0.587-0.989
		c-2.203-4.127-6.832-8.231-8.602-9.712c-0.448-0.375-1.01-0.579-1.594-0.579h-86.744c-0.618,0-1.12,0.501-1.12,1.12v8.917H164.185z
		"/>
	<path style="fill:#F2F2F2;" d="M380.641,217.689l-3.451,9.469c-0.217,0.596,0.224,1.227,0.859,1.227h59.682
		c0.505,0,0.914-0.409,0.914-0.914v-9.469c0-0.505-0.409-0.914-0.914-0.914H381.5C381.116,217.088,380.773,217.328,380.641,217.689z
		"/>
	<path style="fill:#F2F2F2;" d="M388.221,195.791l-3.185,9.434c-0.2,0.593,0.241,1.207,0.866,1.207h74.26
		c0.505,0,0.914-0.409,0.914-0.914v-9.434c0-0.505-0.409-0.914-0.914-0.914h-71.075C388.695,195.17,388.346,195.42,388.221,195.791z
		"/>
	<path style="fill:#F2F2F2;" d="M460.162,173.218h-62.88c-0.384,0-0.728,0.24-0.859,0.602l-3.44,9.451
		c-0.217,0.596,0.224,1.227,0.859,1.227h66.32c0.505,0,0.914-0.409,0.914-0.914v-9.451
		C461.076,173.627,460.667,173.218,460.162,173.218z"/>
	<path style="fill:#F2F2F2;" d="M358.66,217.69c-0.131-0.361-0.475-0.602-0.859-0.602h-55.497c-0.75,0-1.357,0.608-1.357,1.357
		v8.233c0,0.943,0.764,1.707,1.707,1.707h58.588c0.634,0,1.076-0.63,0.859-1.227L358.66,217.69z"/>
	<path style="fill:#F2F2F2;" d="M141.13,196.579v8.552c0,0.718,0.582,1.301,1.301,1.301H267.61c0.586,0,1.024-0.536,0.906-1.11
		c-0.448-2.178-1.586-7.007-3.281-9.428c-0.328-0.468-0.881-0.724-1.452-0.724H142.539
		C141.761,195.17,141.13,195.801,141.13,196.579z"/>
	<path style="fill:#F2F2F2;" d="M345.751,184.497c0.635,0,1.076-0.631,0.859-1.227l-3.44-9.451
		c-0.131-0.361-0.475-0.602-0.859-0.602h-63.167c-0.694,0-1.257,0.563-1.257,1.257v8.741c0,0.708,0.574,1.282,1.282,1.282
		L345.751,184.497L345.751,184.497z"/>
	<path style="fill:#F2F2F2;" d="M142.359,173.218c-0.679,0-1.229,0.55-1.229,1.229v8.625c0,0.787,0.638,1.425,1.425,1.425h111.009
		c0.667,0,0.972-0.831,0.457-1.255c-3.571-2.94-13.447-10.024-25.706-10.024H142.359z"/>
	<path style="fill:#F2F2F2;" d="M366.264,326.803c-0.259,0-0.44,0.257-0.353,0.501l3.845,10.749l0.689,0.011l3.954-10.878
		c0.068-0.187-0.07-0.384-0.269-0.384h-7.866V326.803z"/>
	<path style="fill:#F2F2F2;" d="M394.14,271.651l3.343-9.451c0.21-0.595-0.231-1.219-0.862-1.219h-53.309
		c-0.638,0-1.079,0.637-0.856,1.234l3.528,9.451c0.133,0.358,0.475,0.594,0.857,0.594h46.438
		C393.665,272.26,394.011,272.016,394.14,271.651z"/>
	<path style="fill:#F2F2F2;" d="M386.165,293.594l3.44-9.451c0.217-0.596-0.224-1.227-0.859-1.227h-37.553
		c-0.634,0-1.075,0.629-0.86,1.225l3.411,9.451c0.131,0.362,0.475,0.604,0.86,0.604h30.702
		C385.69,294.195,386.034,293.955,386.165,293.594z"/>
	<path style="fill:#F2F2F2;" d="M373.212,239.643l-2.388,6.585c-0.291,0.803-1.427,0.804-1.719,0.001l-2.396-6.586
		c-0.131-0.361-0.475-0.602-0.859-0.602h-63.505c-0.772,0-1.398,0.626-1.398,1.398v8.309c0,0.868,0.704,1.572,1.572,1.572h32.251
		c0.505,0,0.914-0.409,0.914-0.914c0-1.029,1.436-1.274,1.777-0.303l0.213,0.606c0.129,0.366,0.474,0.611,0.863,0.611h62.373
		c0.38,0,0.721-0.236,0.855-0.591l0.375-0.994c0.359-0.951,1.77-0.694,1.77,0.323v0.349c0,0.505,0.409,0.914,0.914,0.914h32.908
		c0.505,0,0.914-0.409,0.914-0.914v-9.451c0-0.505-0.409-0.914-0.914-0.914h-63.66C373.686,239.04,373.343,239.281,373.212,239.643z
		"/>
	<path style="fill:#F2F2F2;" d="M378.473,315.533l3.285-9.469c0.206-0.594-0.235-1.214-0.864-1.214h-21.792
		c-0.637,0-1.079,0.635-0.857,1.232l3.51,9.469c0.133,0.358,0.475,0.596,0.857,0.596h14.997
		C377.998,316.148,378.345,315.901,378.473,315.533z"/>
	<path style="fill:#F2F2F2;" d="M404.823,272.26h32.908c0.505,0,0.914-0.409,0.914-0.914v-9.451c0-0.505-0.409-0.914-0.914-0.914
		h-32.908c-0.505,0-0.914,0.409-0.914,0.914v9.451C403.909,271.851,404.319,272.26,404.823,272.26z"/>
	<path style="fill:#F2F2F2;" d="M130.393,305.686c0-0.461-0.374-0.835-0.835-0.835H50.994c-0.458,0-0.829,0.371-0.829,0.829v9.362
		c0,0.611,0.495,1.106,1.106,1.106h78.363c0.419,0,0.759-0.34,0.759-0.759V305.686z"/>
	<path style="fill:#F2F2F2;" d="M460.792,326.803h-55.969c-0.505,0-0.914,0.409-0.914,0.914v9.451c0,0.505,0.409,0.914,0.914,0.914
		h55.969c0.505,0,0.914-0.409,0.914-0.914v-9.451C461.706,327.213,461.297,326.803,460.792,326.803z"/>
	<path style="fill:#F2F2F2;" d="M403.909,293.281c0,0.505,0.409,0.914,0.914,0.914h32.908c0.505,0,0.914-0.409,0.914-0.914v-9.451
		c0-0.505-0.409-0.914-0.914-0.914h-32.908c-0.505,0-0.914,0.409-0.914,0.914V293.281z"/>
	<path style="fill:#F2F2F2;" d="M335.684,261.895c0-0.505-0.409-0.914-0.914-0.914h-32.293c-0.845,0-1.53,0.685-1.53,1.53v8.01
		c0,0.961,0.779,1.74,1.74,1.74h32.083c0.505,0,0.914-0.409,0.914-0.914V261.895z"/>
	<path style="fill:#F2F2F2;" d="M461.706,305.765c0-0.505-0.409-0.914-0.914-0.914h-55.969c-0.505,0-0.914,0.409-0.914,0.914v9.469
		c0,0.505,0.409,0.914,0.914,0.914h55.969c0.505,0,0.914-0.409,0.914-0.914V305.765z"/>
	<path style="fill:#F2F2F2;" d="M268.93,217.088h-35.202c-0.554,0-1.003,0.449-1.003,1.003v9.328c0,0.534,0.433,0.967,0.967,0.967
		h33.067c0.429,0,0.811-0.271,0.946-0.679c0.535-1.611,1.81-5.836,1.956-9.874C269.676,217.423,269.338,217.088,268.93,217.088z"/>
	<path style="fill:#F2F2F2;" d="M269.646,293.105c-0.197-3.81-1.35-7.711-1.893-9.367c-0.162-0.494-0.621-0.823-1.141-0.823h-32.491
		c-0.771,0-1.397,0.625-1.397,1.397v8.29c0,0.88,0.713,1.593,1.593,1.593h34.31C269.218,294.195,269.676,293.695,269.646,293.105z"
		/>
	<path style="fill:#F2F2F2;" d="M265.103,315.604c1.859-2.479,3.073-7.923,3.478-9.962c0.082-0.411-0.232-0.792-0.652-0.792H142.13
		c-0.552,0-1,0.448-1,1v9.309c0,0.546,0.442,0.988,0.988,0.988h121.886C264.436,316.148,264.844,315.95,265.103,315.604z"/>
	<path style="fill:#F2F2F2;" d="M142.278,326.803c-0.634,0-1.148,0.514-1.148,1.148v9.066c0,0.579,0.469,1.048,1.048,1.048h86.138
		c12.536,0,22.582-7.398,25.939-10.202c0.431-0.36,0.171-1.06-0.391-1.06L142.278,326.803L142.278,326.803z"/>
	<path style="fill:#F2F2F2;" d="M277.887,205.2c0,0.681,0.552,1.232,1.232,1.232h74.246c0.625,0,1.066-0.614,0.866-1.207
		l-3.185-9.434c-0.125-0.372-0.474-0.622-0.866-0.622h-70.867c-0.788,0-1.427,0.639-1.427,1.426v8.605H277.887z"/>
	<path style="fill:#F2F2F2;" d="M335.684,305.556c0-0.39-0.316-0.706-0.706-0.706H279.69c-0.648,0-1.174,0.526-1.174,1.174v8.79
		c0,0.736,0.597,1.333,1.333,1.333h55.129c0.39,0,0.706-0.316,0.706-0.705V305.556z"/>
	<path style="fill:#F2F2F2;" d="M335.684,283.83c0-0.505-0.409-0.914-0.914-0.914h-32.243c-0.873,0-1.58,0.707-1.58,1.58v8.181
		c0,0.839,0.68,1.519,1.519,1.519h32.304c0.505,0,0.914-0.409,0.914-0.914L335.684,283.83L335.684,283.83z"/>
	<path style="fill:#F2F2F2;" d="M279.699,326.803c-0.653,0-1.182,0.529-1.182,1.182v8.942c0,0.638,0.517,1.155,1.155,1.155h55.503
		c0.282,0,0.51-0.228,0.51-0.51v-10.12c0-0.359-0.291-0.65-0.65-0.65h-55.336V326.803z"/>
</g>
<g>
</g>
<g>
</g>
<g>
</g>
<g>
</g>
<g>
</g>
<g>
</g>
<g>
</g>
<g>
</g>
<g>
</g>
<g>
</g>
<g>
</g>
<g>
</g>
<g>
</g>
<g>
</g>
<g>
</g>
</svg>
