<?xml version="1.0" encoding="iso-8859-1"?>
<!-- Generator: Adobe Illustrator 19.0.0, SVG Export Plug-In . SVG Version: 6.00 Build 0)  -->
<svg version="1.1" id="Capa_1" xmlns="http://www.w3.org/2000/svg" xmlns:xlink="http://www.w3.org/1999/xlink" x="0px" y="0px"
	 viewBox="0 0 511.999 511.999" style="enable-background:new 0 0 511.999 511.999;" xml:space="preserve">
<g>
	<g>
		<path d="M503.032,214.882c2.751-10.253,2.881-20.179,0.357-29.58c-11.585-43.216-73.753-54.24-118.468-55.781
			c0.46-73.43-17.932-118.694-52.197-127.875c-34.935-9.369-79.334,21.611-119.817,83.152
			c-42.318-24.107-79.505-36.036-106.404-34.176c-7.439-10.208-19.458-16.518-32.328-16.518c-22.042,0-39.975,17.933-39.975,39.975
			c0,12.87,6.311,24.888,16.518,32.329c-1.861,26.897,10.07,64.089,34.176,106.405C23.352,253.295-7.625,297.693,1.741,332.628
			c8.746,32.642,50.717,51.002,118.643,52.147c-0.146,5.808-0.078,11.3,0.201,16.45c-15.576,5.55-26.421,20.329-26.421,37.63
			c0,22.042,17.933,39.975,39.975,39.975c2.37,0,4.704-0.217,6.996-0.623c9.899,16.964,23.008,27.992,38.267,32.082
			c45.737,12.258,94.177-44.067,120.133-83.646c41.909,23.306,111.373,51.81,145.194,17.988
			c33.893-33.908,5.183-103.609-18.177-145.52c11.227-7.325,21.381-14.733,30.32-22.125c4.753,1.94,9.847,2.968,15.058,2.968
			c22.042,0,39.975-17.933,39.975-39.975C511.905,230.763,508.72,221.915,503.032,214.882z M151.474,305.039
			c8.675,9.867,17.658,19.464,26.855,28.661c8.501,8.501,17.323,16.807,26.368,24.829c-21.912,3.318-43.256,5.38-62.984,6.062
			C143.413,347.55,146.634,327.873,151.474,305.039z M141.17,261.077c-10.633-13.836-20.36-27.785-29.067-41.693
			c14.985-8.88,30.943-17.074,47.701-24.497c-3.677,10.801-7.002,21.713-9.925,32.632
			C146.582,239.83,143.725,250.835,141.17,261.077z M192.464,319.567c-12.313-12.312-24.236-25.362-35.511-38.839
			c3.389-14.265,7.315-29.68,12.234-48.039c4.323-16.151,9.555-32.288,15.553-48.043c15.749-5.995,31.887-11.228,48.044-15.553
			c16.458-4.408,33.047-8.137,49.384-11.119c13.019,10.971,25.619,22.521,37.494,34.397c12.017,12.017,23.625,24.704,34.573,37.755
			c-3.133,16.306-6.922,32.806-11.295,49.122c-4.303,16.06-9.507,32.124-15.469,47.825c-16.029,6.193-32.199,11.502-48.131,15.773
			c-16.318,4.374-32.817,8.163-49.121,11.295C217.17,343.196,204.483,331.587,192.464,319.567z M307.945,153.85
			c19.632-2.682,38.518-4.197,56.415-4.516c-0.891,17.618-2.812,36.118-5.727,55.279c-8.026-9.049-16.335-17.875-24.838-26.378
			C325.487,169.926,316.839,161.77,307.945,153.85z M362.246,284.419c3.026-11.289,5.781-22.667,8.244-34.014
			c10.638,13.924,20.328,27.971,28.963,41.99c-14.759,8.691-30.649,16.881-46.995,24.236
			C356.08,305.96,359.359,295.19,362.246,284.419z M280.868,37.135c12.479-9.746,30.705-20.465,46.683-16.183
			c23.98,6.425,37.729,46.677,37.374,108.384c-24.228,0.374-50.084,2.845-77.097,7.354c-19.052-15.562-38.42-29.526-57.735-41.619
			C246.506,70.282,263.939,50.356,280.868,37.135z M219.478,112.007c14.136,8.851,28.315,18.749,42.383,29.586
			c-11.4,2.404-22.856,5.14-34.247,8.191c-10.921,2.924-21.833,6.25-32.633,9.926C202.403,142.953,210.597,126.994,219.478,112.007z
			 M54.188,74.08c0-11.021,8.965-19.988,19.988-19.988c10.849,0,19.988,8.809,19.988,19.988c0,11.021-8.966,19.988-19.988,19.988
			C63.067,94.068,54.188,85.012,54.188,74.08z M70.507,113.877c24.868,2.249,45.725-18.495,43.465-43.466
			c22.234,0.515,53.357,11.516,88.342,31.354c-12.361,20.856-23.435,43.484-33.011,67.444
			c-23.964,9.577-46.591,20.651-67.443,33.011C82.024,167.236,71.023,136.111,70.507,113.877z M21.048,327.455
			c-4.282-15.972,6.437-34.202,16.183-46.681c13.221-16.929,33.146-34.361,57.936-50.776c11.694,18.678,25.137,37.404,40.079,55.826
			c-7.088,31.05-11.584,57.045-13.639,78.968C64.5,363.926,27.141,350.203,21.048,327.455z M134.139,458.842
			c-11.022,0-19.988-8.966-19.988-19.988c0-11.101,8.877-19.988,19.988-19.988c11.021,0,19.988,8.966,19.988,19.988
			C154.126,449.988,145.064,458.842,134.139,458.842z M231.386,474.699c-12.515,9.798-30.8,20.578-46.81,16.283
			c-9.731-2.608-18.174-9.723-25.182-21.167c9.162-7.47,14.72-18.759,14.72-30.961c0-19.876-14.583-36.404-33.609-39.463
			c-0.228-4.599-0.276-9.52-0.128-14.763c26.321-0.773,54.613-3.839,84.308-9.136c18.977,15.407,38.288,29.175,57.572,41.04
			C265.817,441.412,248.353,461.417,231.386,474.699z M292.853,399.585c-14.137-8.692-28.307-18.459-42.352-29.19
			c11.345-2.462,22.723-5.217,34.013-8.244c10.831-2.904,21.764-6.268,32.685-10.04C309.826,368.768,301.683,384.65,292.853,399.585
			z M430.593,430.499c-18.144,18.144-64.87,9.873-120.474-20.842c12.299-20.818,23.309-43.368,32.82-67.212
			c23.166-9.416,45.935-20.628,66.604-32.794C440.435,365.422,448.788,412.297,430.593,430.499z M440.435,264.586
			c-7.223,5.749-15.247,11.523-24.002,17.265c-11.821-19.182-25.521-38.388-40.843-57.26c4.669-26.194,7.612-51.386,8.773-75.089
			c56.297,1.975,93.305,17.043,99.721,40.98c1,3.727,1.321,7.653,0.974,11.749c-4.185-1.457-8.617-2.228-13.129-2.228
			c-22.042,0-39.975,17.933-39.975,39.975C431.954,249.054,435.01,257.661,440.435,264.586z M471.93,259.965
			c-10.869,0-19.988-8.808-19.988-19.988c0-11.021,8.966-19.988,19.988-19.988c10.995,0,19.988,8.96,19.988,19.988
			C491.917,250.999,482.951,259.965,471.93,259.965z"/>
	</g>
</g>
<g>
	<g>
		<path d="M256.063,205.999c-27.553,0-49.969,22.416-49.969,49.969c0,27.553,22.416,49.969,49.969,49.969
			c27.553,0,49.969-22.416,49.969-49.969C306.032,228.415,283.616,205.999,256.063,205.999z M256.063,285.949
			c-16.532,0-29.981-13.45-29.981-29.981s13.45-29.981,29.981-29.981c16.532,0,29.981,13.45,29.981,29.981
			S272.595,285.949,256.063,285.949z"/>
	</g>
</g>
<g>
</g>
<g>
</g>
<g>
</g>
<g>
</g>
<g>
</g>
<g>
</g>
<g>
</g>
<g>
</g>
<g>
</g>
<g>
</g>
<g>
</g>
<g>
</g>
<g>
</g>
<g>
</g>
<g>
</g>
</svg>
