<?xml version="1.0" encoding="UTF-8" standalone="no"?>
<!-- Generator: Adobe Illustrator 12.0.0, SVG Export Plug-In . SVG Version: 6.00 Build 51448)  -->

<svg
   xmlns:dc="http://purl.org/dc/elements/1.1/"
   xmlns:cc="http://creativecommons.org/ns#"
   xmlns:rdf="http://www.w3.org/1999/02/22-rdf-syntax-ns#"
   xmlns:svg="http://www.w3.org/2000/svg"
   xmlns="http://www.w3.org/2000/svg"
   xmlns:sodipodi="http://sodipodi.sourceforge.net/DTD/sodipodi-0.dtd"
   xmlns:inkscape="http://www.inkscape.org/namespaces/inkscape"
   id="Layer_1"
   style="enable-background:new 0 0 136.743 136.704"
   space="preserve"
   sodipodi:docname="stop_hover.svg"
   viewBox="0 0 136.743 136.704"
   sodipodi:version="0.32"
   version="1.1"
   inkscape:version="0.92.3 (2405546, 2018-03-11)">
  <defs
     id="defs3781">
    <radialGradient
       r="63.55"
       cx="68.356"
       cy="68.329"
       gradientUnits="userSpaceOnUse"
       id="XMLID_2_">
      <stop
         offset="0"
         style="stop-color:#D4E4F7"
         id="stop8" />
      <stop
         offset="1"
         style="stop-color:#f77fa7;stop-opacity:1"
         id="stop10" />
    </radialGradient>
  </defs>
  <sodipodi:namedview
     id="base"
     bordercolor="#666666"
     inkscape:pageshadow="2"
     inkscape:window-width="1366"
     pagecolor="#ffffff"
     inkscape:zoom="2.6334271"
     inkscape:window-x="0"
     borderopacity="1.0"
     inkscape:current-layer="Layer_1"
     inkscape:cx="19.513917"
     inkscape:cy="58.143895"
     inkscape:window-y="25"
     inkscape:window-height="719"
     inkscape:pageopacity="0.0"
     showgrid="false"
     inkscape:window-maximized="1"
     inkscape:snap-global="false" />
  <path
     inkscape:connector-curvature="0"
     d="m 136.74,68.33 c 0,34.835 -27.326,64.902 -62.045,68.094 C 39.964,139.616 7.464,115.195 1.111,80.847 -5.242,46.508 16.191,11.916 49.846,2.477 c 33.665,-9.439 70.043,8.891 82.458,41.57 2.95,7.744 4.44,16.007 4.44,24.287"
     style="fill:#af5454;opacity:0.5;fill-opacity:1"
     id="path5" />
  <path
     inkscape:connector-curvature="0"
     d="m 131.91,68.33 c 0,34.631 -28.917,63.549 -63.549,63.549 -34.633,0 -63.55,-28.918 -63.55,-63.549 0,-34.633 28.917,-63.55 63.55,-63.55 34.629,-0.001 63.549,28.915 63.549,63.549"
     style="fill:url(#XMLID_2_);opacity:1"
     id="path12" />
  <path
     inkscape:connector-curvature="0"
     d="M 131.80813,73.475459 C 121.89823,102.17734 91.753666,119.91884 61.845559,114.66098 30.124688,109.08487 7.4518208,79.108408 10.497869,47.089344 -1.3416679,81.359082 19.550373,119.6437 54.78304,128.22304 c 36.376376,8.85061 73.48491,-17.36232 77.02509,-54.747581"
     style="fill:#f26868;fill-opacity:1"
     id="path14"
     inkscape:transform-center-x="1.1512718"
     inkscape:transform-center-y="18.223637" />
  <path
     inkscape:connector-curvature="0"
     d="M 118.08188,60.236734 C 109.43596,57.827705 106.14443,42.124604 100.82159,35.818919 90.876504,24.035435 73.809237,18.331879 58.651954,19.588374 42.620342,20.915175 26.494332,31.024306 17.805983,44.627536 c -0.02552,0.0386 -0.0301,0.04749 -0.01323,0.02131 C 23.147167,36.45875 26.733577,28.014565 34.337415,21.349241 46.939838,10.299587 64.339451,5.5299871 80.819613,8.5044515 97.859843,11.579656 112.47549,22.741529 120.72598,37.865888 c 2.55233,4.67439 10.59956,26.061307 -2.64144,22.37222"
     style="fill:#fcb3b3;fill-opacity:1"
     id="path16"
     inkscape:transform-center-x="-0.050415915"
     inkscape:transform-center-y="-36.711116" />
  <metadata
     id="metadata3778">
    <rdf:RDF>
      <cc:Work>
        <dc:format>image/svg+xml</dc:format>
        <dc:type
           rdf:resource="http://purl.org/dc/dcmitype/StillImage" />
        <cc:license
           rdf:resource="http://creativecommons.org/licenses/publicdomain/" />
        <dc:publisher>
          <cc:Agent
             rdf:about="http://openclipart.org/">
            <dc:title>Openclipart</dc:title>
          </cc:Agent>
        </dc:publisher>
        <dc:title />
        <dc:date>2010-03-23T18:01:47</dc:date>
        <dc:description>Drawing by Francesco 'Architetto' Rollandin. From OCAL 0.18 release.</dc:description>
        <dc:source>https://openclipart.org/detail/33583/architetto----pulsante-02-by-anonymous</dc:source>
        <dc:creator>
          <cc:Agent>
            <dc:title>Anonymous</dc:title>
          </cc:Agent>
        </dc:creator>
        <dc:subject>
          <rdf:Bag>
            <rdf:li>arrow</rdf:li>
            <rdf:li>icon</rdf:li>
            <rdf:li>right</rdf:li>
            <rdf:li>sign</rdf:li>
            <rdf:li>symbol</rdf:li>
            <rdf:li>triangle</rdf:li>
          </rdf:Bag>
        </dc:subject>
      </cc:Work>
      <cc:License
         rdf:about="http://creativecommons.org/licenses/publicdomain/">
        <cc:permits
           rdf:resource="http://creativecommons.org/ns#Reproduction" />
        <cc:permits
           rdf:resource="http://creativecommons.org/ns#Distribution" />
        <cc:permits
           rdf:resource="http://creativecommons.org/ns#DerivativeWorks" />
      </cc:License>
    </rdf:RDF>
  </metadata>
  <g
     transform="translate(-111.36677,-18.431265)"
     id="g823">
    <rect
       y="63.13171"
       x="157.03801"
       height="47.258114"
       width="45.378529"
       id="rect825"
       style="opacity:1;fill:#ffffff;fill-opacity:0.50196078;stroke:#d37c7c;stroke-opacity:0.50196081" />
  </g>
</svg>
